<svg width="56" height="50" viewBox="0 0 56 50" fill="none" xmlns="http://www.w3.org/2000/svg">
<path d="M13.55 45.7346C17.6115 47.7449 22.3295 48.75 27.7038 48.75C33.0782 48.75 37.7756 47.7449 41.7962 45.7346C45.8577 43.7244 49.0167 40.9346 51.2731 37.3654C53.5295 33.7551 54.6577 29.55 54.6577 24.75C54.6577 19.95 53.5295 15.7654 51.2731 12.1962C49.0167 8.5859 45.8577 5.77564 41.7962 3.76539C37.7756 1.75513 33.0782 0.75 27.7038 0.75C22.3295 0.75 17.6115 1.75513 13.55 3.76539C9.52949 5.77564 6.39103 8.5859 4.13462 12.1962C1.87821 15.7654 0.75 19.95 0.75 24.75C0.75 29.55 1.87821 33.7551 4.13462 37.3654C6.39103 40.9346 9.52949 43.7244 13.55 45.7346Z" stroke="#F2F4F3" stroke-width="1.5" stroke-dasharray="2 6"/>
<path d="M35.0366 22.6936C34.3928 20.3494 34.277 20.2329 31.943 19.5843C31.0333 19.3328 30.3975 18.4922 30.3975 17.5431C30.3975 16.8204 30.7674 16.1625 31.344 15.7787L17.0579 15.7773C15.5085 15.7773 14.25 17.0441 14.25 18.6008V29.8959C14.25 31.4539 15.5098 32.7193 17.0579 32.7193H21.9065L24.9698 36.0246C25.1027 36.1675 25.2884 36.2496 25.4832 36.2496C25.678 36.2496 25.8636 36.1688 25.9966 36.0246L29.0599 32.7193H33.9084C35.4579 32.7193 36.7164 31.4525 36.7164 29.8959V24.2185C35.9212 24.0835 35.2551 23.4931 35.0366 22.6923V22.6936ZM20.5675 26.0148C20.5675 26.4039 20.2529 26.7203 19.8659 26.7203C19.4789 26.7203 19.1642 26.404 19.1642 26.0148V22.4845C19.1642 22.0953 19.4789 21.779 19.8659 21.779C20.2529 21.779 20.5675 22.0953 20.5675 22.4845V26.0148ZM23.3768 27.7793C23.3768 28.1684 23.0622 28.4848 22.6751 28.4848C22.2881 28.4848 21.9735 28.1684 21.9735 27.7793V20.72C21.9735 20.3309 22.2881 20.0145 22.6751 20.0145C23.0622 20.0145 23.3768 20.3309 23.3768 20.72V27.7793ZM26.1847 26.0148C26.1847 26.4039 25.8701 26.7203 25.4831 26.7203C25.0961 26.7203 24.7814 26.404 24.7814 26.0148V22.4845C24.7814 22.0953 25.0961 21.779 25.4831 21.779C25.8701 21.779 26.1847 22.0953 26.1847 22.4845V26.0148ZM28.9927 27.7793C28.9927 28.1684 28.6781 28.4848 28.291 28.4848C27.904 28.4848 27.5894 28.1684 27.5894 27.7793V20.72C27.5894 20.3309 27.904 20.0145 28.291 20.0145C28.6781 20.0145 28.9927 20.3309 28.9927 20.72V27.7793ZM31.8019 26.0148C31.8019 26.4039 31.4886 26.7203 31.1003 26.7203C30.712 26.7203 30.3986 26.404 30.3986 26.0148V22.4845C30.3986 22.0953 30.7119 21.779 31.1003 21.779C31.4886 21.779 31.8019 22.0953 31.8019 22.4845V26.0148Z" fill="#F2F4F3"/>
<path d="M41.8188 16.8631C39.0135 16.0834 38.5185 15.5871 37.7444 12.7676C37.6615 12.4618 37.3837 12.25 37.0678 12.25C36.7518 12.25 36.4741 12.4618 36.3911 12.7676C35.6171 15.587 35.1221 16.0847 32.3167 16.8631C32.0126 16.9478 31.802 17.2258 31.802 17.5435C31.802 17.8611 32.0126 18.1391 32.3167 18.2238C35.122 19.0035 35.617 19.4999 36.3911 22.3194C36.4741 22.6251 36.7518 22.8369 37.0678 22.8369C37.3837 22.8369 37.6615 22.6251 37.7444 22.3194C38.5185 19.4999 39.0134 19.0022 41.8188 18.2238C42.1229 18.1391 42.3335 17.8611 42.3335 17.5435C42.3335 17.2258 42.1229 16.9478 41.8188 16.8631Z" fill="#F2F4F3"/>
</svg>
