<svg width="56" height="50" viewBox="0 0 56 50" fill="none" xmlns="http://www.w3.org/2000/svg">
<path d="M13.55 45.7346C17.6115 47.7449 22.3295 48.75 27.7038 48.75C33.0782 48.75 37.7756 47.7449 41.7962 45.7346C45.8577 43.7244 49.0167 40.9346 51.2731 37.3654C53.5295 33.7551 54.6577 29.55 54.6577 24.75C54.6577 19.95 53.5295 15.7654 51.2731 12.1962C49.0167 8.5859 45.8577 5.77564 41.7962 3.76539C37.7756 1.75513 33.0782 0.75 27.7038 0.75C22.3295 0.75 17.6115 1.75513 13.55 3.76539C9.52949 5.77564 6.39103 8.5859 4.13462 12.1962C1.87821 15.7654 0.75 19.95 0.75 24.75C0.75 29.55 1.87821 33.7551 4.13462 37.3654C6.39103 40.9346 9.52949 43.7244 13.55 45.7346Z" stroke="#F2F4F3" stroke-width="1.5" stroke-dasharray="2 6"/>
<path fill-rule="evenodd" clip-rule="evenodd" d="M34.3575 11.875C34.7328 11.875 35.0582 12.1334 35.1414 12.4976L35.5862 14.4442C35.7919 15.3445 36.4984 16.0475 37.4031 16.2522L39.3592 16.6949C39.7252 16.7777 39.9849 17.1015 39.9849 17.4749C39.9849 17.8484 39.7252 18.1722 39.3592 18.255L37.4031 18.6977C36.4984 18.9024 35.7919 19.6054 35.5862 20.5058L35.1414 22.4523C35.0582 22.8164 34.7328 23.0749 34.3575 23.0749C33.9822 23.0749 33.6568 22.8164 33.5736 22.4523L33.1288 20.5058C32.9231 19.6054 32.2166 18.9024 31.3118 18.6977L29.3557 18.255C28.9898 18.1722 28.7301 17.8484 28.7301 17.4749C28.7301 17.1015 28.9898 16.7777 29.3557 16.6949L31.3118 16.2522C32.2166 16.0475 32.9231 15.3445 33.1288 14.4442L33.5736 12.4976C33.6568 12.1334 33.9822 11.875 34.3575 11.875Z" fill="#F2F4F3"/>
<path fill-rule="evenodd" clip-rule="evenodd" d="M29.6096 20.2754C28.3993 20.2754 27.3988 21.2497 27.3988 22.4754C27.3988 23.701 28.3993 24.6753 29.6096 24.6753C30.8199 24.6753 31.8203 23.701 31.8203 22.4754C31.8203 21.2497 30.8199 20.2754 29.6096 20.2754Z" fill="#F2F4F3"/>
<path fill-rule="evenodd" clip-rule="evenodd" d="M19.887 16.6753H27.6918C27.5836 16.9218 27.5242 17.1928 27.5242 17.4753C27.5242 17.7577 27.5836 18.0288 27.6918 18.2753H19.887C18.9991 18.2753 18.2792 18.9916 18.2792 19.8753V26.6839C21.8174 25.7932 25.3867 26.7418 27.9729 28.9391C29.6815 27.8512 31.6958 27.581 33.5536 28.0374V24.1084C33.8012 24.2161 34.0737 24.2752 34.3575 24.2752C34.6413 24.2752 34.9137 24.2161 35.1614 24.1084V29.1272C35.1617 29.1392 35.1617 29.1513 35.1614 29.1634V32.6751C35.1614 34.4424 33.7217 35.8751 31.9457 35.8751H19.887C18.1111 35.8751 16.6714 34.4424 16.6714 32.6751V19.8753C16.6714 18.108 18.1111 16.6753 19.887 16.6753Z" fill="#F2F4F3"/>
</svg>
