<svg width="56" height="50" viewBox="0 0 56 50" fill="none" xmlns="http://www.w3.org/2000/svg">
<path d="M13.55 45.7346C17.6115 47.7449 22.3295 48.75 27.7038 48.75C33.0782 48.75 37.7756 47.7449 41.7962 45.7346C45.8577 43.7244 49.0167 40.9346 51.2731 37.3654C53.5295 33.7551 54.6577 29.55 54.6577 24.75C54.6577 19.95 53.5295 15.7654 51.2731 12.1962C49.0167 8.5859 45.8577 5.77564 41.7962 3.76539C37.7756 1.75513 33.0782 0.75 27.7038 0.75C22.3295 0.75 17.6115 1.75513 13.55 3.76539C9.52949 5.77564 6.39103 8.5859 4.13462 12.1962C1.87821 15.7654 0.75 19.95 0.75 24.75C0.75 29.55 1.87821 33.7551 4.13462 37.3654C6.39103 40.9346 9.52949 43.7244 13.55 45.7346Z" stroke="#F2F4F3" stroke-width="1.5" stroke-dasharray="2 6"/>
<path fill-rule="evenodd" clip-rule="evenodd" d="M24.4321 13.5202C25.6057 13.0121 26.865 12.75 28.1375 12.75C29.4101 12.75 30.6693 13.0121 31.843 13.5202C33.0166 14.0284 34.0806 14.7722 34.9752 15.7074C35.8697 16.6425 36.5776 17.7508 37.0599 18.968C37.1791 19.2688 37.284 19.5748 37.3743 19.885C38.1356 19.8853 38.7384 19.8981 39.2582 20.0775C40.293 20.4346 41.1059 21.254 41.4602 22.2971C41.6524 22.8628 41.6518 23.526 41.6511 24.3826V26.4146C41.6518 27.2712 41.6524 27.9344 41.4602 28.5002C41.1059 29.5433 40.293 30.3627 39.2582 30.7198C38.6984 30.913 38.0425 30.9129 37.1959 30.9122C37.1664 30.9899 37.1359 31.0672 37.1043 31.1441C36.6515 32.2459 35.9879 33.2469 35.1514 34.0902C34.3148 34.9335 33.3217 35.6024 32.2286 36.0587C31.1356 36.5151 29.9641 36.75 28.781 36.75C28.248 36.75 27.8158 36.3144 27.8158 35.777C27.8158 35.2397 28.248 34.8041 28.781 34.8041C29.7106 34.8041 30.6311 34.6195 31.4898 34.2609C32.3487 33.9023 33.129 33.3768 33.7863 32.7142C34.4436 32.0517 34.965 31.2651 35.3207 30.3994C35.6745 29.5385 35.8575 28.616 35.8595 27.6843V22.7893C35.8577 21.7247 35.6562 20.6716 35.2671 19.6898C34.8763 18.7035 34.3043 17.8095 33.5855 17.0581C32.8668 16.3068 32.0154 15.7128 31.081 15.3082C30.1467 14.9037 29.1466 14.6959 28.1375 14.6959C27.1284 14.6959 26.1283 14.9037 25.194 15.3082C24.2596 15.7128 23.4083 16.3068 22.6895 17.0581C21.9707 17.8095 21.3988 18.7035 21.0079 19.6898C20.619 20.6715 20.4175 21.7244 20.4155 22.7888V29.9392C20.4155 30.4765 19.9834 30.9122 19.4503 30.9122L19.0859 30.9122C18.2361 30.9129 17.5781 30.9135 17.0169 30.7198C15.982 30.3627 15.1692 29.5433 14.8149 28.5002C14.6227 27.9344 14.6232 27.2712 14.6239 26.4146V24.3826C14.6232 23.526 14.6227 22.8628 14.8149 22.2971C15.1692 21.254 15.982 20.4346 17.0168 20.0775C17.5367 19.8981 18.1395 19.8853 18.9008 19.885C18.9911 19.5748 19.096 19.2688 19.2152 18.968C19.6975 17.7508 20.4053 16.6425 21.2999 15.7074C22.1945 14.7722 23.2585 14.0284 24.4321 13.5202ZM37.79 27.6636C37.79 27.6654 37.79 27.6671 37.79 27.6689C37.79 27.6743 37.79 27.6797 37.79 27.685V28.9618C38.2827 28.9535 38.4798 28.9316 38.6329 28.8788C39.1033 28.7165 39.4728 28.344 39.6338 27.8698C39.7074 27.6531 39.7205 27.349 39.7205 26.2549V24.5424C39.7205 23.4483 39.7074 23.1441 39.6338 22.9274C39.4728 22.4533 39.1033 22.0808 38.6329 21.9185C38.4798 21.8657 38.2827 21.8437 37.79 21.8355V27.6636ZM18.485 21.8355C17.9924 21.8437 17.7953 21.8657 17.6422 21.9185C17.1718 22.0808 16.8023 22.4533 16.6413 22.9274C16.5676 23.1441 16.5545 23.4483 16.5545 24.5424V26.2549C16.5545 27.349 16.5676 27.6531 16.6413 27.8698C16.8023 28.344 17.1718 28.7165 17.6422 28.8788C17.7953 28.9316 17.9924 28.9535 18.485 28.9618V21.8355Z" fill="#F2F4F3"/>
<path d="M23.2331 26.2171C22.4793 25.9359 22.4793 24.8612 23.2331 24.58C25.1291 23.8728 26.624 22.366 27.3255 20.4549C27.6045 19.6951 28.6706 19.6951 28.9496 20.4549C29.6511 22.366 31.146 23.8728 33.0419 24.58C33.7957 24.8612 33.7957 25.9359 33.0419 26.2171C31.146 26.9242 29.6511 28.431 28.9496 30.3422C28.6706 31.102 27.6045 31.102 27.3255 30.3422C26.624 28.431 25.1291 26.9242 23.2331 26.2171Z" fill="#F2F4F3"/>
</svg>
