<svg width="56" height="50" viewBox="0 0 56 50" fill="none" xmlns="http://www.w3.org/2000/svg">
<path d="M13.55 45.7346C17.6115 47.7449 22.3295 48.75 27.7038 48.75C33.0782 48.75 37.7756 47.7449 41.7962 45.7346C45.8577 43.7244 49.0167 40.9346 51.2731 37.3654C53.5295 33.7551 54.6577 29.55 54.6577 24.75C54.6577 19.95 53.5295 15.7654 51.2731 12.1962C49.0167 8.5859 45.8577 5.77564 41.7962 3.76539C37.7756 1.75513 33.0782 0.75 27.7038 0.75C22.3295 0.75 17.6115 1.75513 13.55 3.76539C9.52949 5.77564 6.39103 8.5859 4.13462 12.1962C1.87821 15.7654 0.75 19.95 0.75 24.75C0.75 29.55 1.87821 33.7551 4.13462 37.3654C6.39103 40.9346 9.52949 43.7244 13.55 45.7346Z" stroke="#F2F4F3" stroke-width="1.5" stroke-dasharray="2 6"/>
<path d="M27.6895 10.75C31.2403 10.75 34.1289 13.6034 34.1289 17.1104C34.1289 18.0593 33.9179 18.9624 33.5371 19.7725L37.5215 22.0234C38.2128 22.4112 38.6289 23.1173 38.6289 23.9043C38.6288 24.6738 38.2361 25.3624 37.5742 25.7617C38.2361 26.1552 38.6288 26.8438 38.6289 27.6133C38.6289 28.383 38.2363 29.0723 37.5742 29.4658C38.2361 29.8594 38.6289 30.5478 38.6289 31.3174C38.6289 32.1044 38.2128 32.8047 37.5215 33.1982L29.2129 37.8857C28.7442 38.1519 28.2168 38.2851 27.6895 38.2852C27.1622 38.2852 26.6347 38.1519 26.166 37.8857L17.8574 33.1924C17.166 32.8047 16.75 32.0985 16.75 31.3115C16.75 30.5419 17.1427 29.8535 17.8047 29.46C17.1426 29.0664 16.75 28.3771 16.75 27.6074C16.7501 26.8379 17.1427 26.1493 17.8047 25.7559C17.1427 25.3624 16.7501 24.6739 16.75 23.9043C16.75 23.1173 17.1661 22.417 17.8574 22.0234L21.8418 19.7725C21.461 18.9624 21.2501 18.0593 21.25 17.1104C21.25 13.6034 24.1386 10.75 27.6895 10.75ZM17.8047 30.6631C17.6934 30.854 17.6348 31.08 17.6348 31.3115C17.6348 31.7861 17.8809 32.2089 18.2969 32.4404L26.6055 37.127C27.2734 37.5031 28.1113 37.5031 28.7793 37.127L37.0879 32.4404C37.5038 32.209 37.7499 31.786 37.75 31.3174C37.75 31.0801 37.6914 30.8599 37.5801 30.6689L29.7402 35.0908C29.1133 35.4438 28.4101 35.6289 27.6895 35.6289C26.9689 35.6289 26.2597 35.4437 25.6387 35.0908L17.8047 30.6631ZM17.8047 26.96C17.6934 27.1508 17.6348 27.3761 17.6348 27.6074C17.6348 28.082 17.8809 28.5048 18.2969 28.7363L18.9121 29.084L26.6055 33.4238C27.2734 33.7998 28.1114 33.7999 28.7793 33.4238L36.4727 29.084L37.0879 28.7363C37.5038 28.5048 37.749 28.082 37.749 27.6133C37.749 27.3761 37.6904 27.1558 37.5791 26.9648L29.7393 31.3867C29.1124 31.7396 28.409 31.9248 27.6885 31.9248C26.9679 31.9247 26.2587 31.7397 25.6377 31.3867L17.8047 26.96ZM33.1094 20.5361C32.3535 21.7051 31.2402 22.5793 29.957 23.0596C29.295 23.3026 28.5859 23.4465 27.8418 23.4639H27.5371C26.7989 23.4465 26.0839 23.3084 25.4219 23.0596C24.1386 22.5793 23.0254 21.7051 22.2695 20.5361L18.2969 22.7754C17.8809 23.0127 17.6348 23.4297 17.6348 23.9043C17.6348 24.3787 17.881 24.8008 18.2969 25.0322L26.6055 29.7197C27.2734 30.0959 28.1113 30.0959 28.7793 29.7197L37.0879 25.0322C37.5037 24.8007 37.7499 24.3787 37.7441 23.9043C37.7441 23.4297 37.498 23.0069 37.082 22.7754L33.1094 20.5361ZM27.6133 12.7695C27.5872 12.7758 27.561 12.7742 27.5361 12.7842C27.5339 12.7853 27.5325 12.786 27.5303 12.7871C27.493 12.8021 27.4629 12.8288 27.4307 12.8525C27.4109 12.8674 27.3862 12.8774 27.3701 12.8936C27.3565 12.9073 27.3503 12.9264 27.3379 12.9414C27.3093 12.9789 27.2803 13.0141 27.2617 13.0566C27.2606 13.0588 27.2599 13.0604 27.2588 13.0615L26.7393 14.3682C26.4885 15.0005 25.9839 15.5082 25.3574 15.7607L24.0605 16.2832C24.0594 16.2844 24.058 16.2868 24.0557 16.2881C24.0185 16.3031 23.9885 16.3308 23.9551 16.3545C23.9352 16.3695 23.9109 16.378 23.8936 16.3955C23.88 16.4093 23.8727 16.4294 23.8604 16.4443C23.8331 16.4805 23.8045 16.5155 23.7871 16.5566C23.7859 16.5591 23.7844 16.5603 23.7832 16.5615C23.7733 16.5852 23.7764 16.6092 23.7715 16.6328C23.7628 16.6703 23.75 16.7083 23.75 16.7471C23.75 16.7869 23.7616 16.823 23.7715 16.8604C23.7777 16.884 23.7747 16.9092 23.7832 16.9316C23.7844 16.9341 23.7859 16.936 23.7871 16.9385C23.7908 16.947 23.7969 16.9544 23.8018 16.9629C23.8241 17.0079 23.8515 17.0497 23.8838 17.0859C23.8949 17.0983 23.9086 17.108 23.9209 17.1191C23.9556 17.1491 23.9932 17.1743 24.0342 17.1943C24.0441 17.1993 24.0506 17.2082 24.0605 17.2119L25.3574 17.7344C25.9839 17.9869 26.4885 18.4958 26.7393 19.127L27.2588 20.4336C27.26 20.436 27.2605 20.438 27.2617 20.4404C27.2655 20.4491 27.2724 20.4562 27.2773 20.4648C27.2997 20.5098 27.3262 20.5517 27.3584 20.5879C27.3696 20.6004 27.3841 20.6098 27.3965 20.6211C27.4311 20.651 27.468 20.6763 27.5088 20.6963C27.5187 20.7013 27.5252 20.7101 27.5352 20.7139C27.5413 20.7163 27.5466 20.7153 27.5527 20.7178C27.6059 20.7377 27.6616 20.75 27.7197 20.75C27.7781 20.75 27.8331 20.7378 27.8877 20.7178C27.8939 20.7153 27.8991 20.7164 27.9053 20.7139C27.9149 20.7101 27.921 20.7013 27.9307 20.6963C27.9716 20.6763 28.0092 20.6523 28.0439 20.6211C28.0562 20.61 28.07 20.6002 28.0811 20.5879C28.1146 20.5529 28.142 20.5111 28.1631 20.4648C28.1668 20.4563 28.174 20.4501 28.1777 20.4404C28.179 20.4379 28.1804 20.4361 28.1816 20.4336L28.7002 19.127C28.9509 18.4944 29.4564 17.9869 30.083 17.7344L31.3799 17.2119C31.3896 17.2082 31.3956 17.1993 31.4053 17.1943C31.4462 17.1743 31.4838 17.1504 31.5186 17.1191C31.5309 17.108 31.5446 17.0983 31.5557 17.0859C31.5892 17.0509 31.6166 17.0091 31.6377 16.9629C31.6414 16.9544 31.6486 16.9482 31.6523 16.9385C31.6536 16.936 31.655 16.9341 31.6562 16.9316C31.6661 16.9079 31.664 16.8841 31.6689 16.8604C31.6776 16.823 31.6894 16.7857 31.6895 16.7471C31.6895 16.7071 31.6789 16.6703 31.6689 16.6328C31.6628 16.6091 31.6649 16.584 31.6562 16.5615C31.6551 16.5592 31.6535 16.5578 31.6523 16.5566C31.635 16.5131 31.6058 16.4768 31.5762 16.4395C31.565 16.4257 31.5583 16.407 31.5459 16.3945C31.5261 16.3746 31.4991 16.3629 31.4756 16.3467C31.4458 16.3254 31.4192 16.3018 31.3857 16.2881C31.3834 16.2869 31.3822 16.2843 31.3799 16.2842L30.083 15.7617C29.4563 15.5092 28.9509 15.0005 28.7002 14.3691L28.1816 13.0615C28.1804 13.0591 28.1789 13.0579 28.1777 13.0566C28.1604 13.0141 28.1321 12.9786 28.1035 12.9424C28.0911 12.9274 28.0849 12.9073 28.0713 12.8936C28.0539 12.8761 28.0289 12.8665 28.0078 12.8516C27.9768 12.8291 27.9471 12.8021 27.9111 12.7871C27.9089 12.7859 27.9074 12.7845 27.9053 12.7842C27.878 12.7729 27.8478 12.7738 27.8193 12.7676C27.7872 12.7601 27.755 12.7501 27.7217 12.75C27.6845 12.75 27.6492 12.7608 27.6133 12.7695Z" fill="#F2F4F3"/>
</svg>
