<svg width="56" height="50" viewBox="0 0 56 50" fill="none" xmlns="http://www.w3.org/2000/svg">
<path d="M13.55 45.7346C17.6115 47.7449 22.3295 48.75 27.7038 48.75C33.0782 48.75 37.7756 47.7449 41.7962 45.7346C45.8577 43.7244 49.0167 40.9346 51.2731 37.3654C53.5295 33.7551 54.6577 29.55 54.6577 24.75C54.6577 19.95 53.5295 15.7654 51.2731 12.1962C49.0167 8.5859 45.8577 5.77564 41.7962 3.76539C37.7756 1.75513 33.0782 0.75 27.7038 0.75C22.3295 0.75 17.6115 1.75513 13.55 3.76539C9.52949 5.77564 6.39103 8.5859 4.13462 12.1962C1.87821 15.7654 0.75 19.95 0.75 24.75C0.75 29.55 1.87821 33.7551 4.13462 37.3654C6.39103 40.9346 9.52949 43.7244 13.55 45.7346Z" stroke="#F2F4F3" stroke-width="1.5" stroke-dasharray="2 6"/>
<path d="M31.9726 19.9671C31.9726 19.7421 31.8237 19.5445 31.6086 19.485C29.1861 18.8112 28.7205 18.3421 28.0516 15.9016C27.9925 15.6849 27.7963 15.5349 27.573 15.5349C27.3497 15.5349 27.1535 15.6849 27.0944 15.9016C26.4256 18.342 25.96 18.8111 23.5374 19.485C23.3223 19.5445 23.1734 19.7421 23.1734 19.9671C23.1734 20.1921 23.3223 20.3897 23.5385 20.4492C25.9611 21.123 26.4267 21.5921 27.0956 24.0326C27.1547 24.2493 27.3508 24.3993 27.5742 24.3993C27.7975 24.3993 27.9937 24.2493 28.0528 24.0326C28.7216 21.5921 29.1872 21.1231 31.6098 20.4492C31.8249 20.3897 31.9749 20.1921 31.9749 19.9671H31.9726Z" fill="#F2F4F3"/>
<path d="M42.1871 26.8048C38.245 25.7084 37.4875 24.9453 36.399 20.9738C36.3399 20.7572 36.1438 20.6072 35.9204 20.6072C35.6971 20.6072 35.5009 20.7572 35.4418 20.9738C34.3535 24.9452 33.596 25.7083 29.6537 26.8048C29.4386 26.8644 29.2897 27.062 29.2897 27.287C29.2897 27.512 29.4386 27.7096 29.6537 27.7691C33.5958 28.8656 34.3534 29.6286 35.4418 33.6001C35.5009 33.8168 35.6971 33.9668 35.9204 33.9668C36.1438 33.9668 36.3399 33.8168 36.399 33.6001C37.4874 29.6288 38.2449 28.8656 42.1871 27.7691C42.4022 27.7096 42.5511 27.512 42.5511 27.287C42.5511 27.062 42.4022 26.8644 42.1871 26.8048Z" fill="#F2F4F3"/>
<path d="M21.7531 32.8452H20.8078V16.6548H21.7531C22.2755 16.6548 22.6985 16.2286 22.6985 15.7024C22.6985 15.1762 22.2755 14.75 21.7531 14.75H17.9716C17.4493 14.75 17.0262 15.1762 17.0262 15.7024C17.0262 16.2286 17.4493 16.6548 17.9716 16.6548H18.917V32.8452H17.9716C17.4493 32.8452 17.0262 33.2714 17.0262 33.7976C17.0262 34.3238 17.4493 34.75 17.9716 34.75H21.7531C22.2755 34.75 22.6985 34.3238 22.6985 33.7976C22.6985 33.2714 22.2755 32.8452 21.7531 32.8452Z" fill="#F2F4F3"/>
</svg>
