<svg width="56" height="50" viewBox="0 0 56 50" fill="none" xmlns="http://www.w3.org/2000/svg">
<path d="M13.55 45.7346C17.6115 47.7449 22.3295 48.75 27.7038 48.75C33.0782 48.75 37.7756 47.7449 41.7962 45.7346C45.8577 43.7244 49.0167 40.9346 51.2731 37.3654C53.5295 33.7551 54.6577 29.55 54.6577 24.75C54.6577 19.95 53.5295 15.7654 51.2731 12.1962C49.0167 8.5859 45.8577 5.77564 41.7962 3.76539C37.7756 1.75513 33.0782 0.75 27.7038 0.75C22.3295 0.75 17.6115 1.75513 13.55 3.76539C9.52949 5.77564 6.39103 8.5859 4.13462 12.1962C1.87821 15.7654 0.75 19.95 0.75 24.75C0.75 29.55 1.87821 33.7551 4.13462 37.3654C6.39103 40.9346 9.52949 43.7244 13.55 45.7346Z" stroke="#F2F4F3" stroke-width="1.5" stroke-dasharray="2 6"/>
<path fill-rule="evenodd" clip-rule="evenodd" d="M23.2568 12.75H29.9608C30.1895 12.75 30.4089 12.8403 30.5706 13.0011L37.4695 19.8582C37.6313 20.0189 37.7221 20.237 37.7221 20.4643V32.2705C37.7221 32.881 37.7222 33.3905 37.6879 33.8068C37.6522 34.2409 37.5751 34.6485 37.3775 35.034C37.0743 35.6253 36.5906 36.1061 35.9956 36.4075C35.6078 36.6038 35.1977 36.6805 34.761 36.716C34.3422 36.75 33.8295 36.75 33.2153 36.75H23.2568C22.6426 36.75 22.13 36.75 21.7112 36.716C21.2744 36.6805 20.8643 36.6038 20.4765 36.4075C19.8815 36.1061 19.3978 35.6253 19.0946 35.034C18.8971 34.6485 18.8199 34.2409 18.7842 33.8068C18.75 33.3905 18.75 32.881 18.75 32.2705V17.2295C18.75 16.619 18.75 16.1095 18.7842 15.6932C18.8199 15.2591 18.8971 14.8515 19.0946 14.466C19.3978 13.8747 19.8815 13.3939 20.4765 13.0926C20.8643 12.8962 21.2744 12.8195 21.7112 12.784C22.13 12.75 22.6426 12.75 23.2568 12.75ZM21.8516 14.4926C21.5215 14.5194 21.3636 14.5673 21.2595 14.62C20.9891 14.7569 20.7692 14.9755 20.6314 15.2443C20.5783 15.3478 20.5302 15.5047 20.5032 15.8328C20.4754 16.171 20.4747 16.6101 20.4747 17.2643V32.2357C20.4747 32.8899 20.4754 33.329 20.5032 33.6672C20.5302 33.9953 20.5783 34.1522 20.6314 34.2557C20.7692 34.5245 20.9891 34.7431 21.2595 34.88C21.3636 34.9327 21.5215 34.9806 21.8516 35.0074C22.1918 35.0351 22.6336 35.0357 23.2918 35.0357H33.1803C33.8385 35.0357 34.2803 35.0351 34.6205 35.0074C34.9506 34.9806 35.1085 34.9327 35.2126 34.88C35.4831 34.7431 35.7029 34.5245 35.8407 34.2557C35.8938 34.1522 35.9419 33.9953 35.9689 33.6672C35.9967 33.329 35.9974 32.8899 35.9974 32.2357V21.3214H33.6053C32.9911 21.3214 32.4784 21.3215 32.0596 21.2874C31.6228 21.252 31.2127 21.1753 30.8249 20.9789C30.2299 20.6776 29.7462 20.1968 29.4431 19.6054C29.2455 19.2199 29.1683 18.8123 29.1326 18.3782C29.0984 17.9619 29.0984 17.4524 29.0984 16.8419V14.4643H23.2918C22.6336 14.4643 22.1918 14.4649 21.8516 14.4926ZM30.8232 15.6765L34.7778 19.6071H33.6402C32.9821 19.6071 32.5403 19.6065 32.2001 19.5789C31.8699 19.552 31.7121 19.5042 31.608 19.4514C31.3375 19.3145 31.1176 19.0959 30.9798 18.8271C30.9268 18.7236 30.8786 18.5667 30.8516 18.2386C30.8238 17.9005 30.8232 17.4613 30.8232 16.8071V15.6765Z" fill="#F2F4F3"/>
<path d="M23.8545 27.7569C23.181 27.5092 23.181 26.5625 23.8545 26.3148C25.5483 25.6918 26.8839 24.3644 27.5106 22.6807C27.7599 22.0114 28.7124 22.0114 28.9616 22.6807C29.5884 24.3644 30.9239 25.6918 32.6178 26.3148C33.2912 26.5625 33.2912 27.5092 32.6178 27.7569C30.9239 28.3799 29.5884 29.7073 28.9616 31.391C28.7124 32.0603 27.7599 32.0603 27.5106 31.391C26.8839 29.7073 25.5483 28.3799 23.8545 27.7569Z" fill="#F2F4F3"/>
</svg>
