<svg width="12" height="12" viewBox="0 0 12 12" fill="none" xmlns="http://www.w3.org/2000/svg">
<rect width="12" height="12" rx="6" fill="#FF90AE"/>
<path d="M6 2.5V6V9.5M4.25 7.85617L4.76275 8.24058C5.44583 8.75333 6.55358 8.75333 7.23725 8.24058C7.92092 7.72783 7.92092 6.89717 7.23725 6.38442C6.896 6.12775 6.448 6 6 6C5.57708 6 5.15417 5.87167 4.83158 5.61558C4.18642 5.10283 4.18642 4.27217 4.83158 3.75942C5.47675 3.24667 6.52325 3.24667 7.16842 3.75942L7.4105 3.95192" fill="#FF90AE"/>
<path d="M6 2.5V6M6 9.5V6M4.25 7.85617L4.76275 8.24058C5.44583 8.75333 6.55358 8.75333 7.23725 8.24058C7.92092 7.72783 7.92092 6.89717 7.23725 6.38442C6.896 6.12775 6.448 6 6 6M6 6C5.57708 6 5.15417 5.87167 4.83158 5.61558C4.18642 5.10283 4.18642 4.27217 4.83158 3.75942C5.47675 3.24667 6.52325 3.24667 7.16842 3.75942L7.4105 3.95192" stroke="#1C1C21" stroke-width="0.875" stroke-linecap="round" stroke-linejoin="round"/>
</svg>
