<svg width="108" height="129" viewBox="0 0 108 129" fill="none" xmlns="http://www.w3.org/2000/svg">
<g clip-path="url(#clip0_20_128)">
<path d="M16.3021 83.4584L5.3916 86.3957L16.3021 89.333C30.1228 93.055 40.9197 103.85 44.6405 117.67L47.5726 128.579L50.5101 117.67C54.2324 103.85 65.0281 93.0536 78.8485 89.333L89.7591 86.3957L78.8485 83.4584C65.0278 79.7363 54.231 68.9413 50.5101 55.1218L47.5726 44.2119L44.6351 55.1218C40.9183 68.9472 30.1239 79.7419 16.3021 83.4584Z" fill="url(#paint0_linear_20_128)"/>
<path d="M7.02352 23.1637L0.831055 24.8308L7.02352 26.4979C14.8677 28.6104 20.9957 34.7374 23.1075 42.5809L24.7717 48.7729L26.4389 42.5809C28.5515 34.7372 34.6788 28.6096 42.5229 26.4979L48.7153 24.8308L42.5229 23.1637C34.6787 21.0512 28.5507 14.9243 26.4389 7.08075L24.7717 0.888672L23.1044 7.08075C20.9949 14.9276 14.8684 21.0543 7.02352 23.1637Z" fill="url(#paint1_linear_20_128)"/>
<path d="M70.2785 39.2825L64.6758 40.7908L70.2785 42.2992C77.3757 44.2105 82.92 49.7539 84.8307 56.8504L86.3364 62.4528L87.8448 56.8504C89.7563 49.7538 95.3 44.2098 102.397 42.2992L108 40.7908L102.397 39.2825C95.2999 37.3712 89.7555 31.8278 87.8448 24.7313L86.3364 19.1289L84.8279 24.7313C82.9193 31.8308 77.3762 37.374 70.2785 39.2825Z" fill="#D8FFFE"/>
</g>
<defs>
<linearGradient id="paint0_linear_20_128" x1="47.5753" y1="128.579" x2="47.5753" y2="44.2119" gradientUnits="userSpaceOnUse">
<stop stop-color="#00C4D2"/>
<stop offset="1" stop-color="#56EEFF"/>
</linearGradient>
<linearGradient id="paint1_linear_20_128" x1="24.7732" y1="0.888672" x2="24.7732" y2="48.7729" gradientUnits="userSpaceOnUse">
<stop stop-color="#E0FFFE"/>
<stop offset="1" stop-color="#43F9FF"/>
</linearGradient>
<clipPath id="clip0_20_128">
<rect width="108" height="129" fill="white"/>
</clipPath>
</defs>
</svg>
