<svg width="318" height="273" viewBox="0 0 318 273" fill="none" xmlns="http://www.w3.org/2000/svg">
<g clip-path="url(#clip0_20_1491)">
<g style="mix-blend-mode:luminosity">
<path d="M426.904 -309.193V-354.974H374.663M426.904 -309.193H374.663M426.904 -309.193V-263.413M374.663 -354.974V-309.193M374.663 -354.974H322.422M374.663 -309.193V-263.413M374.663 -309.193H322.422M426.904 -263.413H374.663M426.904 -263.413V-217.633M374.663 -263.413V-217.633M374.663 -263.413H322.422M322.422 -309.193V-354.974M322.422 -309.193V-263.413M322.422 -309.193H270.18M322.422 -354.974H270.18M426.904 -217.633H374.663M426.904 -217.633V-171.853M374.663 -217.633V-171.853M374.663 -217.633H322.422M322.422 -263.413V-217.633M322.422 -263.413H270.18M426.904 -171.853H374.663M426.904 -171.853V-126.073M374.663 -171.853V-126.073M374.663 -171.853H322.422M322.422 -217.633V-171.853M322.422 -217.633H270.18M426.904 -126.073H374.663M426.904 -126.073V-80.2928M374.663 -126.073V-80.2928M374.663 -126.073H322.422M322.422 -171.853V-126.073M322.422 -171.853H270.18M426.904 -80.2928H374.663M426.904 -80.2928V-34.5127M374.663 -80.2928V-34.5127M374.663 -80.2928H322.422M322.422 -126.073V-80.2928M322.422 -126.073H270.18M426.904 -34.5127H374.663M426.904 -34.5127V11.2675M374.663 -34.5127V11.2675M374.663 -34.5127H322.422M322.422 -80.2928V-34.5127M322.422 -80.2928H270.18M426.904 11.2675H374.663M426.904 11.2675V57.0476M374.663 11.2675V57.0476M374.663 11.2675H322.422M322.422 -34.5127V11.2675M322.422 -34.5127H270.18M426.904 57.0476H374.663M426.904 57.0476V102.828M374.663 57.0476V102.828M374.663 57.0476H322.422M322.422 11.2675V57.0476M322.422 11.2675H270.18M426.904 102.828H374.663M426.904 102.828V148.608M374.663 102.828V148.608M374.663 102.828H322.422M322.422 57.0476V102.828M322.422 57.0476H270.18M426.904 148.608H374.663M426.904 148.608V194.388M374.663 148.608V194.388M374.663 148.608H322.422M322.422 102.828V148.608M322.422 102.828H270.18M426.904 194.388H374.663M426.904 194.388V240.168M374.663 194.388V240.168M374.663 194.388H322.422M322.422 148.608V194.388M322.422 148.608H270.18M426.904 240.168H374.663M426.904 240.168V285.948M374.663 240.168V285.948M374.663 240.168H322.422M322.422 194.388V240.168M322.422 194.388H270.18M426.904 285.948H374.663M426.904 285.948V331.729M374.663 285.948V331.729M374.663 285.948H322.422M322.422 240.168V285.948M322.422 240.168H270.18M426.904 331.729H374.663M426.904 331.729V377.509M374.663 331.729V377.509M374.663 331.729H322.422M322.422 285.948V331.729M322.422 285.948H270.18M426.904 377.509H374.663M426.904 377.509V423.289H374.663M374.663 377.509V423.289M374.663 377.509H322.422M322.422 331.729V377.509M322.422 331.729H270.18M374.663 423.289H322.422M322.422 377.509V423.289M322.422 377.509H270.18M322.422 423.289H270.18M270.18 -309.193V-354.974M270.18 -309.193V-263.413M270.18 -309.193H217.939M270.18 -354.974H217.939M270.18 -263.413V-217.633M270.18 -263.413H217.939M270.18 -217.633V-171.853M270.18 -217.633H217.939M270.18 -171.853V-126.073M270.18 -171.853H217.939M270.18 -126.073V-80.2928M270.18 -126.073H217.939M270.18 -80.2928V-34.5127M270.18 -80.2928H217.939M270.18 -34.5127V11.2675M270.18 -34.5127H217.939M270.18 11.2675V57.0476M270.18 11.2675H217.939M270.18 57.0476V102.828M270.18 57.0476H217.939M270.18 102.828V148.608M270.18 102.828H217.939M270.18 148.608V194.388M270.18 148.608H217.939M270.18 194.388V240.168M270.18 194.388H217.939M270.18 240.168V285.948M270.18 240.168H217.939M270.18 285.948V331.729M270.18 285.948H217.939M270.18 331.729V377.509M270.18 331.729H217.939M270.18 377.509V423.289M270.18 377.509H217.939M270.18 423.289H217.939M217.939 -309.193V-354.974M217.939 -309.193V-263.413M217.939 -309.193H165.697M217.939 -354.974H165.697M217.939 -263.413V-217.633M217.939 -263.413H165.697M217.939 -217.633V-171.853M217.939 -217.633H165.697M217.939 -171.853V-126.073M217.939 -171.853H165.697M217.939 -126.073V-80.2928M217.939 -126.073H165.697M217.939 -80.2928V-34.5127M217.939 -80.2928H165.697M217.939 -34.5127V11.2675M217.939 -34.5127H165.697M217.939 11.2675V57.0476M217.939 11.2675H165.697M217.939 57.0476V102.828M217.939 57.0476H165.697M217.939 102.828V148.608M217.939 102.828H165.697M217.939 148.608V194.388M217.939 148.608H165.697M217.939 194.388V240.168M217.939 194.388H165.697M217.939 240.168V285.948M217.939 240.168H165.697M217.939 285.948V331.729M217.939 285.948H165.697M217.939 331.729V377.509M217.939 331.729H165.697M217.939 377.509V423.289M217.939 377.509H165.697M217.939 423.289H165.697M165.697 -309.193V-354.974M165.697 -309.193V-263.413M165.697 -309.193H113.456M165.697 -354.974H113.456M165.697 -263.413V-217.633M165.697 -263.413H113.456M165.697 -217.633V-171.853M165.697 -217.633H113.456M165.697 -171.853V-126.073M165.697 -171.853H113.456M165.697 -126.073V-80.2928M165.697 -126.073H113.456M165.697 -80.2928V-34.5127M165.697 -80.2928H113.456M165.697 -34.5127V11.2675M165.697 -34.5127H113.456M165.697 11.2675V57.0476M165.697 11.2675H113.456M165.697 57.0476V102.828M165.697 57.0476H113.456M165.697 102.828V148.608M165.697 102.828H113.456M165.697 148.608V194.388M165.697 148.608H113.456M165.697 194.388V240.168M165.697 194.388H113.456M165.697 240.168V285.948M165.697 240.168H113.456M165.697 285.948V331.729M165.697 285.948H113.456M165.697 331.729V377.509M165.697 331.729H113.456M165.697 377.509V423.289M165.697 377.509H113.456M165.697 423.289H113.456M113.456 -309.193V-354.974M113.456 -309.193V-263.413M113.456 -309.193H61.2145M113.456 -354.974H61.2145M113.456 -263.413V-217.633M113.456 -263.413H61.2145M113.456 -217.633V-171.853M113.456 -217.633H61.2145M113.456 -171.853V-126.073M113.456 -171.853H61.2145M113.456 -126.073V-80.2928M113.456 -126.073H61.2145M113.456 -80.2928V-34.5127M113.456 -80.2928H61.2145M113.456 -34.5127V11.2675M113.456 -34.5127H61.2145M113.456 11.2675V57.0476M113.456 11.2675H61.2145M113.456 57.0476V102.828M113.456 57.0476H61.2145M113.456 102.828V148.608M113.456 102.828H61.2145M113.456 148.608V194.388M113.456 148.608H61.2145M113.456 194.388V240.168M113.456 194.388H61.2145M113.456 240.168V285.948M113.456 240.168H61.2145M113.456 285.948V331.729M113.456 285.948H61.2145M113.456 331.729V377.509M113.456 331.729H61.2145M113.456 377.509V423.289M113.456 377.509H61.2145M113.456 423.289H61.2145M61.2145 -309.193V-354.974M61.2145 -309.193V-263.413M61.2145 -309.193H8.97314M61.2145 -354.974H8.97314M61.2145 -263.413V-217.633M61.2145 -263.413H8.97314M61.2145 -217.633V-171.853M61.2145 -217.633H8.97313M61.2145 -171.853V-126.073M61.2145 -171.853H8.97313M61.2145 -126.073V-80.2928M61.2145 -126.073H8.97313M61.2145 -80.2928V-34.5127M61.2145 -80.2928H8.97313M61.2145 -34.5127V11.2675M61.2145 -34.5127H8.97313M61.2145 11.2675V57.0476M61.2145 11.2675H8.97311M61.2145 57.0476V102.828M61.2145 57.0476H8.97311M61.2145 102.828V148.608M61.2145 102.828H8.97311M61.2145 148.608V194.388M61.2145 148.608H8.97311M61.2145 194.388V240.168M61.2145 194.388H8.97311M61.2145 240.168V285.948M61.2145 240.168H8.97311M61.2145 285.948V331.729M61.2145 285.948H8.97311M61.2145 331.729V377.509M61.2145 331.729H8.97311M61.2145 377.509V423.289M61.2145 377.509H8.97311M61.2145 423.289H8.97311M8.97314 -309.193V-354.974M8.97314 -309.193V-263.413M8.97314 -309.193L-43.2683 -309.194M8.97314 -354.974H-43.2683M8.97314 -263.413L8.97313 -217.633M8.97314 -263.413H-43.2683M8.97313 -217.633V-171.853M8.97313 -217.633H-43.2683M8.97313 -171.853V-126.073M8.97313 -171.853H-43.2683M8.97313 -126.073V-80.2928M8.97313 -126.073H-43.2683M8.97313 -80.2928V-34.5127M8.97313 -80.2928H-43.2683M8.97313 -34.5127L8.97311 11.2675M8.97313 -34.5127H-43.2683M8.97311 11.2675V57.0476M8.97311 11.2675H-43.2683M8.97311 57.0476V102.828M8.97311 57.0476H-43.2683M8.97311 102.828V148.608M8.97311 102.828H-43.2683M8.97311 148.608V194.388M8.97311 148.608H-43.2683M8.97311 194.388V240.168M8.97311 194.388H-43.2683M8.97311 240.168V285.948M8.97311 240.168H-43.2683M8.97311 285.948V331.729M8.97311 285.948H-43.2683M8.97311 331.729V377.509M8.97311 331.729H-43.2683M8.97311 377.509V423.289M8.97311 377.509H-43.2683M8.97311 423.289H-43.2683M-43.2683 -309.194V-354.974M-43.2683 -309.194V-263.413M-43.2683 -309.194H-95.5096M-43.2683 -354.974H-95.5096M-43.2683 -263.413V-217.633M-43.2683 -263.413H-95.5096M-43.2683 -217.633V-171.853M-43.2683 -217.633H-95.5096M-43.2683 -171.853V-126.073M-43.2683 -171.853H-95.5096M-43.2683 -126.073V-80.2928M-43.2683 -126.073H-95.5096M-43.2683 -80.2928V-34.5127M-43.2683 -80.2928H-95.5096M-43.2683 -34.5127V11.2675M-43.2683 -34.5127H-95.5096M-43.2683 11.2675V57.0476M-43.2683 11.2675H-95.5096M-43.2683 57.0476V102.828M-43.2683 57.0476H-95.5096M-43.2683 102.828V148.608M-43.2683 102.828H-95.5096M-43.2683 148.608V194.388M-43.2683 148.608H-95.5096M-43.2683 194.388V240.168M-43.2683 194.388H-95.5096M-43.2683 240.168V285.948M-43.2683 240.168H-95.5097M-43.2683 285.948V331.729M-43.2683 285.948H-95.5097M-43.2683 331.729V377.509M-43.2683 331.729H-95.5097M-43.2683 377.509V423.289M-43.2683 377.509H-95.5097M-43.2683 423.289H-95.5097M-95.5096 -309.194V-354.974M-95.5096 -309.194V-263.413M-95.5096 -309.194H-147.751M-95.5096 -354.974H-147.751M-95.5096 -263.413V-217.633M-95.5096 -263.413H-147.751M-95.5096 -217.633V-171.853M-95.5096 -217.633H-147.751M-95.5096 -171.853V-126.073M-95.5096 -171.853H-147.751M-95.5096 -126.073V-80.2928M-95.5096 -126.073H-147.751M-95.5096 -80.2928V-34.5127M-95.5096 -80.2928H-147.751M-95.5096 -34.5127V11.2675M-95.5096 -34.5127H-147.751M-95.5096 11.2675V57.0476M-95.5096 11.2675H-147.751M-95.5096 57.0476V102.828M-95.5096 57.0476H-147.751M-95.5096 102.828V148.608M-95.5096 102.828H-147.751M-95.5096 148.608V194.388M-95.5096 148.608H-147.751M-95.5096 194.388L-95.5097 240.168M-95.5096 194.388H-147.751M-95.5097 240.168V285.948M-95.5097 240.168H-147.751M-95.5097 285.948V331.729M-95.5097 285.948H-147.751M-95.5097 331.729V377.509M-95.5097 331.729H-147.751M-95.5097 377.509V423.289M-95.5097 377.509H-147.751M-95.5097 423.289H-147.751M-147.751 -309.194V-354.974M-147.751 -309.194V-263.413M-147.751 -309.194H-199.992M-147.751 -354.974H-199.992V-309.194M-147.751 -263.413V-217.633M-147.751 -263.413H-199.992M-147.751 -217.633V-171.853M-147.751 -217.633H-199.992M-147.751 -171.853V-126.073M-147.751 -171.853H-199.992M-147.751 -126.073V-80.2928M-147.751 -126.073H-199.992M-147.751 -80.2928V-34.5127M-147.751 -80.2928H-199.992M-147.751 -34.5127V11.2675M-147.751 -34.5127H-199.992M-147.751 11.2675V57.0476M-147.751 11.2675H-199.992M-147.751 57.0476V102.828M-147.751 57.0476H-199.992M-147.751 102.828V148.608M-147.751 102.828H-199.992M-147.751 148.608V194.388M-147.751 148.608H-199.992M-147.751 194.388V240.168M-147.751 194.388H-199.992M-147.751 240.168V285.948M-147.751 240.168H-199.992M-147.751 285.948V331.729M-147.751 285.948H-199.992M-147.751 331.729V377.509M-147.751 331.729H-199.992M-147.751 377.509V423.289M-147.751 377.509H-199.992M-147.751 423.289H-199.992V377.509M-199.992 -309.194V-263.413M-199.992 -263.413V-217.633M-199.992 -217.633V-171.853M-199.992 -171.853V-126.073M-199.992 -126.073V-80.2928M-199.992 -80.2928V-34.5127M-199.992 -34.5127V11.2675M-199.992 11.2675V57.0476M-199.992 57.0476V102.828M-199.992 102.828V148.608M-199.992 148.608V194.388M-199.992 194.388V240.168M-199.992 240.168V285.948M-199.992 285.948V331.729M-199.992 331.729V377.509" stroke="url(#paint0_linear_20_1491)" stroke-width="1.33952"/>
</g>
</g>
<defs>
<linearGradient id="paint0_linear_20_1491" x1="-0.403585" y1="1.33923" x2="323.761" y2="290.676" gradientUnits="userSpaceOnUse">
<stop offset="0.418017" stop-color="#01DADA" stop-opacity="0"/>
<stop offset="1" stop-color="#01CCDA" stop-opacity="0.25"/>
</linearGradient>
<clipPath id="clip0_20_1491">
<rect width="318" height="273" fill="white"/>
</clipPath>
</defs>
</svg>
