<svg width="180" height="20" viewBox="0 0 180 20" fill="none" xmlns="http://www.w3.org/2000/svg">
<g clip-path="url(#clip0_308_101)">
<path fill-rule="evenodd" clip-rule="evenodd" d="M24.1818 0.31543L19.6052 11.2826L15.0243 0.31543H12.0856L17.1065 12.3044C17.523 13.3047 18.4997 13.9508 19.588 13.9508C20.6763 13.9508 21.6509 13.3047 22.0695 12.3086L27.1206 0.31543H24.1818ZM26.1374 17.0248L34.5092 8.56065L33.3672 5.86662L24.2226 15.1293C23.4584 15.9043 23.2394 17.0463 23.6623 18.0466C24.0831 19.0384 25.0555 19.6802 26.1396 19.6802L26.1438 19.6845L39.2147 19.6523L38.0727 16.9583L26.1396 17.0248H26.1374ZM4.70542 8.55423L5.84742 5.86018L14.9921 15.1229C15.7562 15.8957 15.9774 17.042 15.5523 18.0401C15.1316 19.0341 14.1549 19.6737 13.0752 19.6737L0.00429327 19.6437L0 19.648L1.14201 16.954L13.0752 17.0206L4.70542 8.55423Z" fill="#6720FF"/>
<path d="M49.656 18.6091L49.6582 18.6113H51.9057V10.8705H59.1656V8.86342H51.9057V3.82741H59.8912V1.82031H49.656V18.6091Z" fill="#F2F4F3"/>
<path d="M64.3303 6.48291H62.2224V18.6092H64.3303V6.48291Z" fill="#F2F4F3"/>
<path d="M69.6755 8.0906H69.6776C69.6304 8.20651 69.5853 8.27735 69.4436 8.27735C69.3256 8.27735 69.2805 8.23227 69.2805 8.11635V6.48277H67.1725V18.6091H69.2762V11.727C69.2762 9.39788 70.356 8.48771 72.3932 8.48771H74.0804V6.43555H72.7216C71.0601 6.43555 70.2164 6.92497 69.6755 8.0906Z" fill="#F2F4F3"/>
<path d="M81.0912 17.1446C78.8309 17.1446 77.1435 15.861 77.0019 13.1347H86.8525V11.967C86.8525 8.58605 84.7916 6.13672 81.0419 6.13672C77.2917 6.13672 74.9025 8.58605 74.9025 12.5487C74.9025 16.5114 77.2209 18.9607 81.087 18.9607C84.9533 18.9607 86.5416 16.608 86.8983 14.7662H84.7C84.3583 16.1443 83.3516 17.1446 81.0912 17.1446ZM81.0419 7.95063C83.27 7.95063 84.6483 9.14197 84.745 11.381H77.0599C77.4098 9.09264 79.0262 7.95063 81.0419 7.95063Z" fill="#F2F4F3"/>
<path d="M101.813 16.3467C101.761 16.557 101.697 16.6279 101.529 16.6279C101.362 16.6279 101.291 16.557 101.246 16.3467L98.9017 6.48291H95.27L92.9258 16.3467C92.8742 16.557 92.81 16.6279 92.6425 16.6279C92.475 16.6279 92.4042 16.557 92.3592 16.3467L90.015 6.48291H87.9542V6.95088H87.9667L90.8267 18.6092H94.4458L96.8608 8.44063C96.9058 8.27534 96.9508 8.23027 97.0925 8.23027C97.2083 8.23027 97.2792 8.27964 97.3242 8.44063L99.7392 18.6092H103.358L106.217 6.95088V6.48291H104.157L101.813 16.3467Z" fill="#F2F4F3"/>
<path d="M113.567 6.13477C110.027 6.13477 107.218 8.34798 107.218 12.5467C107.218 16.7456 110.026 18.9587 113.567 18.9587C117.11 18.9587 119.92 16.7456 119.92 12.5467C119.92 8.34798 117.107 6.13477 113.567 6.13477ZM113.572 17.0933C111.112 17.0933 109.354 15.4641 109.354 12.5467C109.354 9.62948 111.112 8.00019 113.572 8.00019C116.032 8.00019 117.79 9.63382 117.79 12.5467C117.79 15.4597 116.032 17.0933 113.572 17.0933Z" fill="#F2F4F3"/>
<path d="M124.651 8.0906C124.606 8.20651 124.561 8.27736 124.419 8.27736C124.301 8.27736 124.256 8.23227 124.256 8.11636V6.48277H122.148V18.607H124.252V11.727C124.252 9.39788 125.332 8.48771 127.368 8.48771H129.056V6.43555H127.697C126.035 6.43555 125.192 6.92497 124.651 8.0906Z" fill="#F2F4F3"/>
<path d="M132.788 12.1263V1.82031H130.681V18.6198H132.788V14.7473L135.075 12.7982L139.622 18.6156H141.927V18.1476L136.631 11.4652L141.927 6.95076V6.4828H139.218L132.788 12.1263Z" fill="#F2F4F3"/>
<path d="M149.232 11.6689L147.499 11.3426C145.838 11.027 145.11 10.6793 145.11 9.67469C145.11 8.67002 145.932 7.92515 147.899 7.92515C149.865 7.92515 150.99 8.67435 151.153 10.3294H153.3C153.062 7.37347 150.767 6.13916 147.89 6.13916C145.013 6.13916 142.994 7.37562 142.994 9.70469C142.994 12.0339 144.647 12.8409 147.025 13.2832L148.757 13.6094C150.445 13.925 151.288 14.2878 151.288 15.3354C151.288 16.3829 150.442 17.1643 148.407 17.1643C146.372 17.1643 145.022 16.3249 144.859 14.7149H142.715C142.914 17.6064 145.269 18.9589 148.41 18.9589C151.55 18.9589 153.401 17.6194 153.401 15.2151C153.401 12.8109 151.456 12.0875 149.232 11.6689Z" fill="#F2F4F3"/>
<path d="M179.167 1.82031H176.803V18.6198H179.167V1.82031Z" fill="#F2F4F3"/>
<path d="M165.34 1.82031L158.788 18.3129V18.6198H161.128L162.787 14.2343H170.675L172.334 18.6198H174.745V18.3172L168.146 1.82031H165.34ZM163.567 12.2036L166.383 4.8256H166.382C166.428 4.69895 166.551 4.61523 166.686 4.61523H166.802C166.937 4.61523 167.06 4.69895 167.107 4.8256L169.902 12.2036H163.567Z" fill="#F2F4F3"/>
<path d="M64.3303 1.82031H62.2224V4.29323H64.3303V1.82031Z" fill="#F2F4F3"/>
</g>
<defs>
<clipPath id="clip0_308_101">
<rect width="179.167" height="20" fill="white"/>
</clipPath>
</defs>
</svg>
