<svg width="20" height="20" viewBox="0 0 20 20" fill="none" xmlns="http://www.w3.org/2000/svg">
<path d="M9.78613 0C9.55487 0 9.36775 0.186359 9.36775 0.416664V2.08332C9.36775 2.31363 9.55488 2.49998 9.78613 2.49998C10.0174 2.49998 10.2045 2.31362 10.2045 2.08332V0.416664C10.2045 0.186353 10.0174 0 9.78613 0ZM3.86996 2.44144C3.76291 2.44144 3.6575 2.48376 3.57579 2.56514C3.41236 2.7279 3.41236 2.9883 3.57579 3.15107L4.75903 4.32944C4.92246 4.4922 5.18394 4.4922 5.34738 4.32944C5.51082 4.16668 5.51081 3.90627 5.34738 3.7435L4.16414 2.56514C4.08243 2.48376 3.97699 2.44144 3.86996 2.44144ZM15.7023 2.44144C15.5953 2.44144 15.4899 2.48376 15.4081 2.56514L14.2249 3.7435C14.0615 3.90626 14.0615 4.16667 14.2249 4.32944C14.3883 4.49221 14.6498 4.4922 14.8133 4.32944L15.9965 3.15107C16.1599 2.98831 16.1599 2.72791 15.9965 2.56514C15.9148 2.48376 15.8093 2.44144 15.7023 2.44144ZM9.78613 3.75001C7.23503 3.75001 4.76551 5.72102 4.76551 8.50915C4.76551 11.9206 7.18357 12.7881 7.45887 14.9999H12.1134C12.3888 12.7881 14.8068 11.9206 14.8068 8.50915C14.8068 5.72104 12.3372 3.75001 9.78613 3.75001ZM8.4983 5.01303H8.50484C8.51546 5.01221 8.5269 5.01221 8.53753 5.01303C8.73936 5.01384 8.91179 5.1587 8.94773 5.35725C8.98287 5.55501 8.87092 5.75031 8.68135 5.82031C7.66153 6.20279 6.89584 7.10203 6.70054 8.19654C6.65887 8.42277 6.44068 8.57333 6.21352 8.53183C5.98636 8.49033 5.83518 8.27304 5.87685 8.04682C6.12445 6.66093 7.08788 5.53142 8.38067 5.04559C8.41826 5.02931 8.45744 5.01791 8.4983 5.01303ZM1.41839 8.33342C1.18712 8.33342 1 8.51978 1 8.75008C1 8.98039 1.18713 9.16675 1.41839 9.16675H3.09193C3.32319 9.16675 3.51031 8.98039 3.51031 8.75008C3.51031 8.51978 3.32318 8.33342 3.09193 8.33342H1.41839ZM16.4803 8.33342C16.249 8.33342 16.0619 8.51978 16.0619 8.75008C16.0619 8.98039 16.249 9.16675 16.4803 9.16675H18.1538C18.3851 9.16675 18.5722 8.98039 18.5722 8.75008C18.5722 8.51978 18.3851 8.33342 18.1538 8.33342H16.4803ZM7.48497 15.8334V16.6667H12.0872V15.8334H7.48497ZM7.48497 17.5V17.9167C7.48497 18.3952 7.88047 18.75 8.32174 18.75H11.2504C11.6917 18.75 12.0872 18.3952 12.0872 17.9167V17.5H7.48497ZM8.94932 19.1667C8.94932 19.6281 9.32277 20 9.78609 20C10.2494 20 10.6229 19.6281 10.6229 19.1667H8.94932Z" fill="#D2FFEC"/>
</svg>
