<svg width="174" height="36" viewBox="0 0 174 36" fill="none" xmlns="http://www.w3.org/2000/svg">
<path d="M29.2101 3.99198C26.353 2.5608 23.011 1.84521 19.1841 1.84521C15.3572 1.84521 11.9995 2.5608 9.11108 3.99198C8.61056 4.24224 8.1335 4.50814 7.67209 4.77404L12.7555 9.85746L13.0175 9.72451C14.9538 8.83758 17.0666 8.40298 19.1958 8.45366C21.3243 8.39705 23.4371 8.83193 25.3702 9.72451C25.4249 9.75188 25.4797 9.77534 25.5305 9.80663L30.5826 4.74667C30.1447 4.47686 29.6872 4.2266 29.2101 3.99198ZM35.975 9.99041C35.2677 8.8495 34.4146 7.80575 33.4372 6.88562L28.3538 11.969C28.7462 12.4032 29.0934 12.8762 29.39 13.3807C30.3834 15.0621 30.8847 16.9887 30.8368 18.9411C30.8847 20.8935 30.3834 22.8202 29.39 24.5016C29.1463 24.9166 28.8662 25.3092 28.5532 25.6747L33.6366 30.7581C34.5287 29.9048 35.3139 28.9462 35.975 27.9036C37.5834 25.3332 38.3863 22.3353 38.3837 18.9099C38.3811 15.4844 37.5782 12.5113 35.975 9.99041ZM25.8081 27.8958C25.6635 27.974 25.5149 28.0483 25.3624 28.1226C23.4293 29.0151 21.3164 29.45 19.188 29.3934C17.0588 29.4441 14.946 29.0095 13.0097 28.1226C12.822 28.0326 12.6421 27.9388 12.4661 27.841L7.42965 32.8932C7.97863 33.2458 8.54647 33.5683 9.13063 33.859C12.0217 35.2902 15.3793 36.0058 19.2036 36.0058C23.0279 36.0058 26.3634 35.2902 29.2101 33.859C29.7736 33.5838 30.3219 33.2783 30.8525 32.944L25.8081 27.8958ZM8.93512 24.486C7.96987 22.7948 7.4845 20.8722 7.53131 18.9255C7.4845 16.9788 7.96987 15.0562 8.93512 13.365C9.22425 12.8847 9.5567 12.4318 9.92834 12.012L4.86448 6.956C3.92438 7.86277 3.09961 8.88191 2.40879 9.99041C0.802957 12.5321 3.8147e-05 15.5105 3.8147e-05 18.9255C3.8147e-05 22.3405 0.802957 25.3384 2.40879 27.9192C3.04712 28.9275 3.79603 29.8613 4.64159 30.7034L9.725 25.62C9.43337 25.2625 9.16931 24.8834 8.93512 24.486Z" fill="#03F7B5"/>
<path d="M165.893 10.1606L169.528 10.8613L173.207 10.1606V35.343H165.893V10.1606ZM169.528 7.57664C168.214 7.57664 167.134 7.24087 166.287 6.56934C165.469 5.86861 165.061 4.9489 165.061 3.81022C165.061 2.64233 165.469 1.72263 166.287 1.05109C167.134 0.350364 168.214 0 169.528 0C170.871 0 171.951 0.350364 172.769 1.05109C173.586 1.72263 173.995 2.64233 173.995 3.81022C173.995 4.9489 173.586 5.86861 172.769 6.56934C171.951 7.24087 170.871 7.57664 169.528 7.57664Z" fill="white"/>
<path d="M153.426 35.343L152.375 26.2335L153.557 22.905L152.375 19.6204L153.426 10.4233H161.002L159.557 22.905L161.002 35.343H153.426ZM155.353 22.905C154.886 25.5328 154.024 27.8393 152.769 29.8247C151.543 31.7809 149.981 33.2992 148.083 34.3795C146.214 35.4598 144.112 35.9999 141.776 35.9999C139.353 35.9999 137.207 35.4598 135.338 34.3795C133.47 33.27 132.01 31.7371 130.959 29.7809C129.937 27.7955 129.426 25.5036 129.426 22.905C129.426 20.2773 129.937 17.9853 130.959 16.0291C132.01 14.0437 133.47 12.5109 135.338 11.4306C137.207 10.3211 139.353 9.76636 141.776 9.76636C144.112 9.76636 146.214 10.3065 148.083 11.3868C149.981 12.4671 151.557 13.9999 152.813 15.9853C154.068 17.9415 154.915 20.2481 155.353 22.905ZM136.827 22.905C136.827 24.3649 137.119 25.6496 137.703 26.759C138.316 27.8685 139.148 28.7444 140.2 29.3868C141.251 29.9999 142.462 30.3065 143.835 30.3065C145.207 30.3065 146.491 29.9999 147.689 29.3868C148.915 28.7444 149.995 27.8685 150.929 26.759C151.864 25.6496 152.594 24.3649 153.119 22.905C152.594 21.4452 151.864 20.1605 150.929 19.051C149.995 17.9123 148.915 17.0364 147.689 16.4233C146.491 15.781 145.207 15.4598 143.835 15.4598C142.462 15.4598 141.251 15.781 140.2 16.4233C139.148 17.0364 138.316 17.9123 137.703 19.051C137.119 20.1605 136.827 21.4452 136.827 22.905Z" fill="white"/>
<path d="M122.09 35.7374C121.301 35.7374 120.571 35.5476 119.9 35.168C119.257 34.7884 118.747 34.2775 118.367 33.6352C117.987 32.9636 117.798 32.2337 117.798 31.4454C117.798 30.6279 117.987 29.8979 118.367 29.2556C118.747 28.5841 119.257 28.0585 119.9 27.679C120.571 27.2994 121.301 27.1096 122.09 27.1096C122.907 27.1096 123.637 27.2994 124.279 27.679C124.951 28.0585 125.476 28.5841 125.856 29.2556C126.236 29.8979 126.425 30.6279 126.425 31.4454C126.425 32.2337 126.236 32.9636 125.856 33.6352C125.476 34.2775 124.951 34.7884 124.279 35.168C123.637 35.5476 122.907 35.7374 122.09 35.7374Z" fill="white"/>
<path d="M99.4219 35.9999C96.3271 35.9999 93.6117 35.4598 91.276 34.3795C88.9402 33.27 87.1154 31.7371 85.8015 29.7809C84.4877 27.7955 83.8307 25.5036 83.8307 22.905C83.8307 20.2773 84.4877 17.9853 85.8015 16.0291C87.1154 14.0437 88.9402 12.5109 91.276 11.4306C93.6117 10.3211 96.3271 9.76636 99.4219 9.76636C102.517 9.76636 105.232 10.3211 107.568 11.4306C109.904 12.5109 111.714 14.0437 112.999 16.0291C114.312 17.9853 114.969 20.2773 114.969 22.905C114.969 25.5036 114.312 27.7955 112.999 29.7809C111.714 31.7371 109.904 33.27 107.568 34.3795C105.232 35.4598 102.517 35.9999 99.4219 35.9999ZM99.4219 30.4379C101.115 30.4379 102.561 30.1313 103.758 29.5182C104.984 28.905 105.918 28.0437 106.561 26.9342C107.232 25.7955 107.568 24.4525 107.568 22.905C107.568 21.3284 107.232 19.9853 106.561 18.8758C105.918 17.7372 104.984 16.8612 103.758 16.2481C102.561 15.635 101.115 15.3284 99.4219 15.3284C97.7577 15.3284 96.3125 15.635 95.0862 16.2481C93.8599 16.8612 92.911 17.7372 92.2395 18.8758C91.5971 19.9853 91.276 21.3284 91.276 22.905C91.276 24.4525 91.5971 25.7955 92.2395 26.9342C92.911 28.0437 93.8599 28.905 95.0862 29.5182C96.3125 30.1313 97.7577 30.4379 99.4219 30.4379Z" fill="white"/>
<path d="M72.314 1.61987H79.6278V35.3425H72.314V1.61987Z" fill="white"/>
<path d="M39.3079 35.343L51.0889 21.2408L51.0451 23.9562L40.0086 10.4233H48.1984L55.994 19.7956H53.4539L61.2933 10.4233H69.3517L57.9648 24.0876L57.6144 20.6715L70.0086 35.343H61.6874L53.1911 25.27H55.8626L47.4539 35.343H39.3079Z" fill="white"/>
</svg>
