<svg width="189" height="48" viewBox="0 0 189 48" fill="none" xmlns="http://www.w3.org/2000/svg">
<g clip-path="url(#clip0_17_2)">
<path d="M68.5699 46.2275L67.8823 46.2722V35.7217H69.2424V46.9299H67.4343L58.901 36.3794L59.5884 36.3346V46.9299H58.2285V35.7217H60.0518L68.5699 46.2275ZM76.0439 47.1241C75.0776 47.1241 74.2208 46.9399 73.4736 46.5711C72.7363 46.1927 72.1534 45.6747 71.725 45.017C71.3066 44.3497 71.0973 43.5825 71.0973 42.7158C71.0973 41.839 71.2967 41.0718 71.6951 40.4142C72.0938 39.7568 72.6465 39.2437 73.3541 38.8749C74.0614 38.5065 74.8734 38.3222 75.7897 38.3222C76.6964 38.3222 77.4884 38.5213 78.166 38.92C78.8434 39.3184 79.3665 39.8814 79.7352 40.6087C80.1137 41.326 80.3031 42.1627 80.3031 43.119H72.1434V42.0281H79.7201L78.9133 42.5215C78.8833 41.8938 78.7339 41.3508 78.4649 40.8925C78.196 40.4341 77.8323 40.0805 77.374 39.8315C76.9157 39.5825 76.3827 39.4579 75.7749 39.4579C75.1175 39.4579 74.5445 39.5925 74.0563 39.8614C73.5683 40.1204 73.1847 40.4889 72.9058 40.9672C72.6365 41.4455 72.5022 42.0084 72.5022 42.6559C72.5022 43.3335 72.6565 43.9213 72.9654 44.4193C73.2742 44.9175 73.7077 45.3011 74.2656 45.5701C74.8235 45.839 75.4811 45.9736 76.2381 45.9736C76.9257 45.9736 77.5982 45.859 78.2556 45.6297C78.9232 45.4006 79.521 45.0869 80.0489 44.6882V45.7643C79.5307 46.1827 78.9133 46.5164 78.196 46.7656C77.4784 47.0046 76.7611 47.1241 76.0439 47.1241ZM80.7894 39.6222V38.9648L82.6424 38.6211L83.1954 36.3346H84.0173V38.5164H88.112V39.6222H84.0173V43.8962C84.0173 44.6534 84.1816 45.1865 84.5105 45.4953C84.8493 45.7942 85.3672 45.9437 86.0645 45.9437C86.5229 45.9437 86.9213 45.8889 87.2601 45.7791C87.6089 45.6696 87.9474 45.5102 88.2763 45.3011V46.5115C88.0373 46.661 87.6836 46.8004 87.2153 46.9299C86.757 47.0594 86.2787 47.1241 85.7808 47.1241C85.0235 47.1241 84.4109 46.9946 83.9426 46.7357C83.4843 46.4667 83.1506 46.108 82.9413 45.6596C82.7419 45.2013 82.6424 44.6834 82.6424 44.1055V39.6222H80.7894ZM100.49 46.2873H99.9072L103.075 38.5164H104.48L100.968 46.9299H99.5635L96.3803 39.0991H97.0232L93.7952 46.9299H92.3903L88.8786 38.5164H90.2981L93.4813 46.2873H92.8686L95.9919 38.5164H97.4116L100.49 46.2873ZM109.99 47.1241C109.004 47.1241 108.132 46.9399 107.375 46.5711C106.628 46.2026 106.045 45.6844 105.627 45.017C105.208 44.3497 104.999 43.5825 104.999 42.7158C104.999 41.839 105.208 41.0718 105.627 40.4142C106.045 39.7568 106.628 39.2437 107.375 38.8749C108.132 38.5065 109.004 38.3222 109.99 38.3222C110.986 38.3222 111.858 38.5065 112.605 38.8749C113.353 39.2437 113.935 39.7568 114.354 40.4142C114.782 41.0718 114.997 41.839 114.997 42.7158C114.997 43.5825 114.782 44.3497 114.354 45.017C113.935 45.6844 113.353 46.2026 112.605 46.5711C111.858 46.9399 110.986 47.1241 109.99 47.1241ZM109.99 45.9736C110.727 45.9736 111.365 45.8439 111.903 45.5849C112.441 45.3159 112.854 44.9375 113.143 44.4492C113.442 43.9609 113.592 43.3831 113.592 42.7158C113.592 42.0581 113.442 41.4854 113.143 40.9971C112.854 40.5089 112.441 40.1304 111.903 39.8614C111.365 39.5925 110.727 39.4579 109.99 39.4579C109.263 39.4579 108.625 39.5925 108.077 39.8614C107.539 40.1304 107.126 40.5089 106.837 40.9971C106.548 41.4854 106.404 42.0581 106.404 42.7158C106.404 43.3831 106.548 43.9609 106.837 44.4492C107.126 44.9375 107.539 45.3159 108.077 45.5849C108.625 45.8439 109.263 45.9736 109.99 45.9736ZM116.326 38.5164H117.701L118.179 41.3856V46.9299H116.805V41.1317L116.326 38.5164ZM122.648 38.4865V39.7268C122.459 39.6669 122.234 39.6222 121.975 39.5925C121.726 39.5626 121.487 39.5474 121.258 39.5474C120.66 39.5474 120.127 39.6821 119.659 39.951C119.191 40.22 118.827 40.6135 118.568 41.1317C118.309 41.6397 118.179 42.2423 118.179 42.9399L117.791 42.4018C117.811 41.8139 117.906 41.2712 118.075 40.773C118.244 40.2747 118.483 39.8463 118.792 39.4878C119.111 39.1191 119.49 38.8353 119.928 38.6359C120.376 38.4266 120.879 38.3222 121.437 38.3222C121.647 38.3222 121.861 38.337 122.08 38.367C122.309 38.3969 122.498 38.4366 122.648 38.4865ZM125.328 45.6596L124.925 45.5102L130.738 38.5164H132.352L125.239 46.9299H123.954V35.4229H125.328V45.6596ZM128.213 42.7306L129.094 41.6996L132.621 46.9299H130.977L128.213 42.7306Z" fill="white"/>
<path d="M32.2605 18.1534C32.008 20.475 31.1879 22.5316 29.8 24.3233C28.4375 26.0897 26.6457 27.4649 24.4252 28.449C22.2046 29.4331 19.6685 29.9251 16.8171 29.9251C13.6375 29.9251 10.8492 29.3071 8.45187 28.0705C6.05462 26.834 4.1873 25.118 2.84987 22.9227C1.51246 20.7021 0.84375 18.1282 0.84375 15.201C0.84375 12.2738 1.51246 9.71255 2.84987 7.51718C4.1873 5.29657 6.05462 3.56801 8.45187 2.33153C10.8492 1.09506 13.6375 0.476807 16.8171 0.476807C19.6685 0.476807 22.2046 0.968872 24.4252 1.95303C26.6457 2.93716 28.4375 4.31244 29.8 6.07884C31.1879 7.84524 32.008 9.90181 32.2605 12.2486H27.2262C26.9487 10.7346 26.3431 9.435 25.4093 8.3499C24.5009 7.26483 23.3149 6.43211 21.8513 5.85173C20.3877 5.2461 18.697 4.94329 16.7792 4.94329C14.5586 4.94329 12.6282 5.35964 10.9879 6.19238C9.37294 7.02512 8.12385 8.21113 7.24064 9.75043C6.35745 11.2897 5.91583 13.1066 5.91583 15.201C5.91583 17.2955 6.35745 19.1124 7.24064 20.6517C8.12385 22.1909 9.37294 23.377 10.9879 24.2098C12.6282 25.0425 14.5586 25.4587 16.7792 25.4587C18.697 25.4587 20.3877 25.1685 21.8513 24.5882C23.3149 24.0077 24.5009 23.175 25.4093 22.09C26.3431 20.9797 26.9487 19.6676 27.2262 18.1534H32.2605ZM44.058 29.3953V15.8445H49.0542V29.3953H44.058ZM30.6586 1.00675H36.2985L47.881 15.5417H45.1935L56.776 1.00675H62.4159L48.1459 18.9104L44.9663 18.9484L30.6586 1.00675ZM82.2913 15.3146L82.7836 14.2169C85.0294 14.2421 86.8589 14.5828 88.2719 15.2389C89.7102 15.895 90.7577 16.7782 91.4137 17.8885C92.0949 18.9989 92.4356 20.2478 92.4356 21.6357C92.4356 23.1499 92.0698 24.4873 91.3379 25.6481C90.6314 26.8089 89.5842 27.7298 88.1963 28.4112C86.8084 29.0673 85.0798 29.3953 83.0105 29.3953H64.0848L66.3182 14.8225L64.0848 1.00675H82.3294C84.9536 1.00675 86.9724 1.62498 88.3854 2.86146C89.8238 4.0727 90.5429 5.75078 90.5429 7.89571C90.5429 9.03123 90.2654 10.1415 89.7102 11.2266C89.1804 12.2865 88.3099 13.1949 87.0987 13.9519C85.9126 14.6837 84.3102 15.1379 82.2913 15.3146ZM69.1191 27.9947L67.1887 25.3829H82.4429C84.0073 25.3829 85.2187 25.0298 86.0766 24.3233C86.9598 23.5915 87.4013 22.5567 87.4013 21.2195C87.4013 19.8062 86.8842 18.7086 85.8494 17.9263C84.84 17.1441 83.3388 16.7529 81.3453 16.7529H69.0435V12.8921H80.853C82.1904 12.8921 83.3008 12.5262 84.1839 11.7944C85.0671 11.0374 85.5087 9.96491 85.5087 8.57701C85.5087 7.54241 85.1429 6.69707 84.4111 6.04096C83.6792 5.35964 82.6196 5.01899 81.2317 5.01899H67.1887L69.1191 2.40725L71.1253 14.8225L69.1191 27.9947Z" fill="white"/>
<mask id="mask0_17_2" style="mask-type:luminance" maskUnits="userSpaceOnUse" x="94" y="-1" width="31" height="32">
<path d="M124.928 -0.277832H94.0957V30.4745H124.928V-0.277832Z" fill="white"/>
</mask>
<g mask="url(#mask0_17_2)">
<path d="M108.281 30.4741L108.201 28.3039H110.789L110.709 30.4741C110.709 30.4741 113.378 30.4344 116.046 29.1005L113.477 24.2424L111.884 24.8596L113.059 27.8262C112.183 28.1847 110.789 28.3039 110.789 28.3039L110.809 26.1537H108.161V28.3039C108.181 28.3039 108.181 28.3039 108.181 28.3039C108.181 28.3039 106.787 28.2044 105.911 27.8262L107.086 24.8596L105.493 24.2424L102.925 29.1005C105.593 30.4344 108.261 30.4741 108.261 30.4741H108.281Z" fill="#65DDDC"/>
<path d="M95.6761 21.7932L97.5277 20.6383L98.1649 21.7532L98.8021 22.8684L96.8709 23.8838C96.8709 23.8838 98.2248 26.1735 100.734 27.8061L103.66 23.167L102.326 22.0918L100.355 24.5806C99.5984 24.0033 98.822 22.8484 98.822 22.8484L100.694 21.7932L100.036 20.6383L99.3796 19.4835L97.5477 20.5787C97.5477 20.5787 96.9504 19.3044 96.8309 18.3686L99.9769 17.9106L99.7179 16.2183L94.2227 16.4373C94.402 19.4239 95.6961 21.7333 95.6961 21.7333L95.6761 21.7932Z" fill="#65DDDC"/>
<path d="M96.8908 6.56211L98.822 7.57753L98.1849 8.6925L97.5477 9.80746L95.6961 8.65268C95.6961 8.65268 94.402 10.9822 94.2227 13.9687L99.7179 14.1877L99.9769 12.4954L96.8309 12.0374C96.9504 11.1016 97.5477 9.8473 97.5477 9.8473L99.3796 10.9424L100.036 9.78758L100.694 8.63277L98.822 7.57753C98.822 7.57753 99.6183 6.42273 100.355 5.84534L102.326 8.33412L103.66 7.25895L100.734 2.61987C98.2447 4.27244 96.8709 6.5422 96.8709 6.5422L96.8908 6.56211Z" fill="#65DDDC"/>
<path d="M110.709 -0.00805664L110.789 2.16217H108.201L108.28 -0.00805664C108.28 -0.00805664 105.612 0.0317861 102.944 1.36576L105.513 6.22386L107.106 5.60665L105.931 2.64002C106.807 2.28162 108.201 2.16217 108.201 2.16217L108.181 4.31249H110.829V2.16217C110.809 2.16217 110.809 2.16217 110.809 2.16217C110.809 2.16217 112.203 2.26171 113.079 2.64002L111.904 5.60665L113.497 6.22386L116.065 1.36576C113.397 0.0317861 110.729 -0.00805664 110.729 -0.00805664H110.709Z" fill="#65DDDC"/>
<path d="M123.293 8.67256L121.441 9.82737L120.804 8.71238L120.167 7.59742L122.098 6.582C122.098 6.582 120.744 4.29232 118.235 2.65967L115.309 7.29877L116.643 8.37392L118.614 5.88513C119.37 6.46252 120.147 7.61733 120.147 7.61733L118.275 8.67256L118.932 9.82737L119.589 10.9821L121.421 9.88709C121.421 9.88709 122.018 11.1613 122.138 12.0971L118.992 12.5551L119.251 14.2474L124.746 14.0284C124.567 11.0419 123.273 8.73232 123.273 8.73232L123.293 8.67256Z" fill="#65DDDC"/>
<path d="M122.078 23.904L120.147 22.8886L120.784 21.7734L121.421 20.6585L123.273 21.8134C123.273 21.8134 124.567 19.4837 124.746 16.4973L119.251 16.2783L118.992 17.9707L122.138 18.4286C122.018 19.3645 121.421 20.6189 121.421 20.6189L119.589 19.5237L118.932 20.6785L118.275 21.8333L120.147 22.8886C120.147 22.8886 119.35 24.0432 118.614 24.6207L116.643 22.132L115.309 23.2072L118.235 27.8462C120.724 26.1937 122.098 23.924 122.098 23.924L122.078 23.904Z" fill="#65DDDC"/>
</g>
<path d="M131.59 13.8005H143.134C144.8 13.8005 146.112 13.422 147.071 12.665C148.055 11.9079 148.547 10.8733 148.547 9.56116C148.547 8.22373 148.055 7.18913 147.071 6.45733C146.112 5.70031 144.8 5.32179 143.134 5.32179H130.871L133.104 2.52079V29.3953H128.107V1.00675H143.589C145.582 1.00675 147.323 1.37262 148.812 2.10442C150.326 2.81099 151.499 3.80775 152.332 5.09468C153.19 6.35642 153.619 7.84524 153.619 9.56116C153.619 11.2266 153.19 12.7028 152.332 13.9898C151.499 15.2515 150.326 16.2482 148.812 16.98C147.323 17.6866 145.582 18.0399 143.589 18.0399H131.59V13.8005ZM137.192 16.1095H143.059L154.338 29.3953H148.358L137.192 16.1095ZM185.857 17.0557C185.832 18.8222 185.491 20.4876 184.835 22.0522C184.179 23.5915 183.245 24.954 182.034 26.1401C180.823 27.326 179.346 28.2599 177.605 28.941C175.889 29.5971 173.921 29.9251 171.701 29.9251C169.455 29.9251 167.373 29.5847 165.455 28.9033C163.537 28.2219 161.859 27.2505 160.421 25.9888C159.008 24.7018 157.91 23.1499 157.128 21.3331C156.345 19.516 155.954 17.4721 155.954 15.201C155.954 12.9299 156.345 10.886 157.128 9.0691C157.935 7.25223 159.058 5.71294 160.496 4.45123C161.935 3.16427 163.625 2.18014 165.568 1.49881C167.511 0.817484 169.644 0.476807 171.965 0.476807C174.867 0.476807 177.403 0.956274 179.573 1.91518C181.769 2.84884 183.535 4.1358 184.873 5.77601C186.21 7.41624 187.03 9.29621 187.333 11.4159H182.261C181.983 10.0785 181.378 8.91769 180.444 7.93356C179.536 6.9494 178.362 6.19238 176.924 5.66247C175.485 5.13255 173.82 4.86757 171.927 4.86757C169.707 4.86757 167.776 5.28394 166.136 6.11668C164.521 6.92418 163.26 8.09757 162.351 9.63686C161.468 11.1761 161.026 13.0309 161.026 15.201C161.026 17.3712 161.48 19.2384 162.389 20.803C163.323 22.3676 164.635 23.5661 166.326 24.3989C168.016 25.2316 170.01 25.6481 172.306 25.6481C174.527 25.6481 176.47 25.2696 178.135 24.5124C179.801 23.7555 181.113 22.7083 182.072 21.3708C183.031 20.0083 183.548 18.431 183.624 16.6394L185.857 17.0557ZM173.29 19.2133V15.4281H187.636V29.3953H183.926L183.321 17.6235L184.494 19.2133H173.29Z" fill="white"/>
</g>
<defs>
<clipPath id="clip0_17_2">
<rect width="188.308" height="48" fill="white"/>
</clipPath>
</defs>
</svg>
