<svg width="141" height="116" viewBox="0 0 141 116" fill="none" xmlns="http://www.w3.org/2000/svg">
<g clip-path="url(#clip0_20_2046)">
<path d="M0.234375 2.36734V92.3261C0.234375 93.6336 1.29283 94.6935 2.5985 94.6935C3.90416 94.6935 4.96262 93.6336 4.96262 92.3261V2.36734C4.96262 1.05989 3.90416 0 2.5985 0C1.29283 0 0.234375 1.05989 0.234375 2.36734Z" fill="#FBFFFF"/>
<path d="M108.875 2.36734V92.3261C108.875 93.6336 109.933 94.6935 111.239 94.6935C112.545 94.6935 113.603 93.6336 113.603 92.3261V2.36734C113.603 1.05989 112.545 0 111.239 0C109.933 0 108.875 1.05989 108.875 2.36734Z" fill="#FBFFFF"/>
<path d="M95.293 2.36734V92.3261C95.293 93.6336 96.3514 94.6935 97.6571 94.6935C98.9628 94.6935 100.021 93.6336 100.021 92.3261V2.36734C100.021 1.05989 98.9628 0 97.6571 0C96.3514 0 95.293 1.05989 95.293 2.36734Z" fill="#FBFFFF"/>
<path d="M27.3945 16.5714V106.53C27.3945 107.838 28.453 108.898 29.7587 108.898C31.0643 108.898 32.1228 107.838 32.1228 106.53V16.5714C32.1228 15.264 31.0643 14.2041 29.7587 14.2041C28.453 14.2041 27.3945 15.264 27.3945 16.5714Z" fill="#FBFFFF"/>
<path d="M136.033 16.5714V106.53C136.033 107.838 137.092 108.898 138.397 108.898C139.703 108.898 140.761 107.838 140.761 106.53V16.5714C140.761 15.264 139.703 14.2041 138.397 14.2041C137.092 14.2041 136.033 15.264 136.033 16.5714Z" fill="#FBFFFF"/>
<path d="M68.1328 16.5714V106.53C68.1328 107.838 69.1913 108.898 70.4969 108.898C71.8026 108.898 72.8611 107.838 72.8611 106.53V16.5714C72.8611 15.264 71.8026 14.2041 70.4969 14.2041C69.1913 14.2041 68.1328 15.264 68.1328 16.5714Z" fill="#FBFFFF"/>
<path d="M13.8125 11.8371V101.796C13.8125 103.103 14.871 104.163 16.1766 104.163C17.4823 104.163 18.5407 103.103 18.5407 101.796V11.8371C18.5407 10.5296 17.4823 9.46973 16.1766 9.46973C14.871 9.46973 13.8125 10.5296 13.8125 11.8371Z" fill="#FBFFFF"/>
<path d="M122.453 11.8371V101.796C122.453 103.103 123.512 104.163 124.817 104.163C126.123 104.163 127.181 103.103 127.181 101.796V11.8371C127.181 10.5296 126.123 9.46973 124.817 9.46973C123.512 9.46973 122.453 10.5296 122.453 11.8371Z" fill="#FBFFFF"/>
<path d="M81.7148 11.8371V101.796C81.7148 103.103 82.7733 104.163 84.079 104.163C85.3846 104.163 86.4431 103.103 86.4431 101.796V11.8371C86.4431 10.5296 85.3846 9.46973 84.079 9.46973C82.7733 9.46973 81.7148 10.5296 81.7148 11.8371Z" fill="#FBFFFF"/>
<path d="M40.9727 26.0412V113.633C40.9727 114.94 42.0311 116 43.3368 116C44.6424 116 45.7009 114.94 45.7009 113.633V26.0412C45.7009 24.7337 44.6424 23.6738 43.3368 23.6738C42.0311 23.6738 40.9727 24.7337 40.9727 26.0412Z" fill="#FBFFFF"/>
<path d="M54.5547 26.0412V113.633C54.5547 114.94 55.6131 116 56.9188 116C58.2245 116 59.2829 114.94 59.2829 113.633V26.0412C59.2829 24.7337 58.2245 23.6738 56.9188 23.6738C55.6131 23.6738 54.5547 24.7337 54.5547 26.0412Z" fill="#FBFFFF"/>
</g>
<defs>
<clipPath id="clip0_20_2046">
<rect width="141" height="116" fill="white"/>
</clipPath>
</defs>
</svg>
