<svg width="141" height="25" viewBox="0 0 141 25" fill="none" xmlns="http://www.w3.org/2000/svg">
<path d="M0.171204 12.0461C1.00361 12.0461 4.22225 11.3277 5.88707 10.3843C7.55188 9.44092 7.55188 9.44092 10.9925 6.99919C15.3486 3.9078 18.4287 4.94287 23.4786 4.94287" fill="#F2F4F3"/>
<path d="M0.171204 12.0461C1.00361 12.0461 4.22225 11.3277 5.88707 10.3843C7.55188 9.44092 7.55188 9.44092 10.9925 6.99919C15.3486 3.9078 18.4287 4.94287 23.4786 4.94287" stroke="#F2F4F3" stroke-width="4.99444"/>
<path d="M28.3621 4.9739L19.8299 9.89998V0.0478516L28.3621 4.9739Z" fill="#F2F4F3" stroke="#F2F4F3" stroke-width="0.0554938"/>
<path d="M0.00476074 12.0493C0.837168 12.0493 4.05581 12.7677 5.72062 13.7111C7.38544 14.6545 7.38544 14.6545 10.8261 17.0962C15.1822 20.1876 18.2622 19.1525 23.3122 19.1525" fill="#F2F4F3"/>
<path d="M0.00476074 12.0493C0.837168 12.0493 4.05581 12.7677 5.72062 13.7111C7.38544 14.6545 7.38544 14.6545 10.8261 17.0962C15.1822 20.1876 18.2622 19.1525 23.3122 19.1525" stroke="#F2F4F3" stroke-width="4.99444"/>
<path d="M28.1956 19.1218L19.6634 14.1958V24.0479L28.1956 19.1218Z" fill="#F2F4F3" stroke="#F2F4F3" stroke-width="0.0554938"/>
<path d="M48.2839 11.4893V12.3877C48.2839 13.4554 48.1505 14.4124 47.8835 15.2588C47.6166 16.1051 47.2325 16.8245 46.7312 17.417C46.2299 18.0094 45.6277 18.4619 44.9246 18.7744C44.2279 19.0869 43.4467 19.2432 42.5808 19.2432C41.741 19.2432 40.9695 19.0869 40.2664 18.7744C39.5697 18.4619 38.9643 18.0094 38.45 17.417C37.9421 16.8245 37.5483 16.1051 37.2683 15.2588C36.9884 14.4124 36.8484 13.4554 36.8484 12.3877V11.4893C36.8484 10.4215 36.9851 9.46777 37.2585 8.62793C37.5385 7.78158 37.9324 7.06217 38.4402 6.46973C38.948 5.87077 39.5502 5.41504 40.2468 5.10254C40.95 4.79004 41.7214 4.63379 42.5613 4.63379C43.4272 4.63379 44.2084 4.79004 44.905 5.10254C45.6082 5.41504 46.2104 5.87077 46.7117 6.46973C47.2195 7.06217 47.6069 7.78158 47.8738 8.62793C48.1472 9.46777 48.2839 10.4215 48.2839 11.4893ZM46.4187 12.3877V11.4697C46.4187 10.6234 46.3308 9.87467 46.155 9.22363C45.9858 8.57259 45.7351 8.02572 45.4031 7.58301C45.071 7.1403 44.6641 6.80501 44.1824 6.57715C43.7071 6.34928 43.1667 6.23535 42.5613 6.23535C41.9753 6.23535 41.4447 6.34928 40.9695 6.57715C40.5007 6.80501 40.0971 7.1403 39.7585 7.58301C39.4265 8.02572 39.1694 8.57259 38.9871 9.22363C38.8048 9.87467 38.7136 10.6234 38.7136 11.4697V12.3877C38.7136 13.2406 38.8048 13.9958 38.9871 14.6533C39.1694 15.3044 39.4298 15.8545 39.7683 16.3037C40.1134 16.7464 40.5203 17.0817 40.989 17.3096C41.4643 17.5374 41.9949 17.6514 42.5808 17.6514C43.1928 17.6514 43.7364 17.5374 44.2117 17.3096C44.6869 17.0817 45.0873 16.7464 45.4128 16.3037C45.7449 15.8545 45.9955 15.3044 46.1648 14.6533C46.3341 13.9958 46.4187 13.2406 46.4187 12.3877Z" fill="#F2F4F3"/>
<path d="M52.6394 10.5127V23.1104H50.823V8.48145H52.4832L52.6394 10.5127ZM59.7585 13.6768V13.8818C59.7585 14.6501 59.6674 15.363 59.4851 16.0205C59.3028 16.6715 59.0359 17.238 58.6843 17.7197C58.3393 18.2015 57.9128 18.5758 57.405 18.8428C56.8972 19.1097 56.3145 19.2432 55.657 19.2432C54.9864 19.2432 54.394 19.1325 53.8796 18.9111C53.3653 18.6898 52.9291 18.3675 52.571 17.9443C52.213 17.5212 51.9265 17.0133 51.7117 16.4209C51.5033 15.8285 51.3601 15.1611 51.282 14.4189V13.3252C51.3601 12.5439 51.5066 11.8441 51.7214 11.2256C51.9363 10.6071 52.2195 10.0798 52.571 9.64355C52.9291 9.20085 53.3621 8.86556 53.8699 8.6377C54.3777 8.40332 54.9636 8.28613 55.6277 8.28613C56.2917 8.28613 56.8809 8.41634 57.3953 8.67676C57.9096 8.93066 58.3425 9.29525 58.6941 9.77051C59.0457 10.2458 59.3093 10.8154 59.4851 11.4795C59.6674 12.137 59.7585 12.8695 59.7585 13.6768ZM57.9421 13.8818V13.6768C57.9421 13.1494 57.8868 12.6546 57.7761 12.1924C57.6654 11.7236 57.4929 11.3135 57.2585 10.9619C57.0307 10.6038 56.7377 10.3239 56.3796 10.1221C56.0216 9.91374 55.5951 9.80957 55.1003 9.80957C54.6446 9.80957 54.2475 9.8877 53.9089 10.0439C53.5769 10.2002 53.2937 10.4118 53.0593 10.6787C52.825 10.9391 52.6329 11.2386 52.4832 11.5771C52.3399 11.9092 52.2325 12.2542 52.1609 12.6123V15.1416C52.2911 15.5973 52.4734 16.027 52.7078 16.4307C52.9421 16.8278 53.2546 17.1501 53.6453 17.3975C54.0359 17.6383 54.5274 17.7588 55.1199 17.7588C55.6082 17.7588 56.0281 17.6579 56.3796 17.4561C56.7377 17.2477 57.0307 16.9645 57.2585 16.6064C57.4929 16.2484 57.6654 15.8382 57.7761 15.376C57.8868 14.9072 57.9421 14.4092 57.9421 13.8818Z" fill="#F2F4F3"/>
<path d="M66.448 19.2432C65.7123 19.2432 65.045 19.1195 64.446 18.8721C63.8536 18.6182 63.3425 18.2633 62.9128 17.8076C62.4897 17.3519 62.1641 16.8115 61.9363 16.1865C61.7084 15.5615 61.5945 14.8779 61.5945 14.1357V13.7256C61.5945 12.8662 61.7214 12.1012 61.9753 11.4307C62.2292 10.7536 62.5743 10.1807 63.0105 9.71191C63.4467 9.24316 63.9415 8.88835 64.4949 8.64746C65.0483 8.40658 65.6212 8.28613 66.2136 8.28613C66.9688 8.28613 67.6199 8.41634 68.1667 8.67676C68.7201 8.93717 69.1726 9.30176 69.5242 9.77051C69.8757 10.2327 70.1361 10.7796 70.3054 11.4111C70.4747 12.0361 70.5593 12.7197 70.5593 13.4619V14.2725H62.6687V12.7979H68.7527V12.6611C68.7266 12.1924 68.629 11.7367 68.4597 11.2939C68.297 10.8512 68.0365 10.4867 67.6785 10.2002C67.3204 9.91374 66.8321 9.77051 66.2136 9.77051C65.8035 9.77051 65.4259 9.8584 65.0808 10.0342C64.7358 10.2035 64.4395 10.4574 64.1921 10.7959C63.9447 11.1344 63.7527 11.5479 63.616 12.0361C63.4792 12.5244 63.4109 13.0876 63.4109 13.7256V14.1357C63.4109 14.637 63.4792 15.109 63.616 15.5518C63.7592 15.988 63.9643 16.3721 64.2312 16.7041C64.5046 17.0361 64.8334 17.2965 65.2175 17.4854C65.6082 17.6742 66.0509 17.7686 66.5457 17.7686C67.1837 17.7686 67.724 17.6383 68.1667 17.3779C68.6095 17.1175 68.9968 16.7692 69.3289 16.333L70.4226 17.2021C70.1947 17.5472 69.905 17.876 69.5535 18.1885C69.2019 18.501 68.769 18.7549 68.2546 18.9502C67.7468 19.1455 67.1446 19.2432 66.448 19.2432Z" fill="#F2F4F3"/>
<path d="M74.4753 10.7373V19.0479H72.6687V8.48145H74.3777L74.4753 10.7373ZM74.0457 13.3643L73.2937 13.335C73.3002 12.6123 73.4076 11.945 73.616 11.333C73.8243 10.7145 74.1173 10.1774 74.4949 9.72168C74.8725 9.26595 75.3217 8.91439 75.8425 8.66699C76.3699 8.41309 76.9526 8.28613 77.5906 8.28613C78.1114 8.28613 78.5802 8.35775 78.9968 8.50098C79.4135 8.6377 79.7683 8.85905 80.0613 9.16504C80.3608 9.47103 80.5886 9.86816 80.7449 10.3564C80.9011 10.8382 80.9792 11.4274 80.9792 12.124V19.0479H79.1628V12.1045C79.1628 11.5511 79.0815 11.1084 78.9187 10.7764C78.7559 10.4378 78.5183 10.1937 78.2058 10.0439C77.8933 9.8877 77.5092 9.80957 77.0535 9.80957C76.6042 9.80957 76.1941 9.90397 75.823 10.0928C75.4584 10.2816 75.1427 10.542 74.8757 10.874C74.6153 11.2061 74.4102 11.5869 74.2605 12.0166C74.1173 12.4398 74.0457 12.889 74.0457 13.3643Z" fill="#F2F4F3"/>
<path d="M83.9968 4.8291H88.7039C89.7716 4.8291 90.6733 4.99186 91.4089 5.31738C92.1511 5.6429 92.7143 6.12467 93.0984 6.7627C93.489 7.39421 93.6843 8.1722 93.6843 9.09668C93.6843 9.74772 93.5509 10.3434 93.2839 10.8838C93.0235 11.4176 92.6459 11.8734 92.1511 12.251C91.6628 12.6221 91.0769 12.8988 90.3933 13.0811L89.866 13.2861H85.4421L85.4226 11.7529H88.7625C89.4395 11.7529 90.0027 11.6357 90.4519 11.4014C90.9011 11.1605 91.2397 10.8382 91.4675 10.4346C91.6954 10.0309 91.8093 9.58496 91.8093 9.09668C91.8093 8.5498 91.7019 8.07129 91.4871 7.66113C91.2722 7.25098 90.9337 6.93522 90.4714 6.71387C90.0157 6.486 89.4265 6.37207 88.7039 6.37207H85.8816V19.0479H83.9968V4.8291ZM92.3074 19.0479L88.8503 12.6025L90.8132 12.5928L94.3191 18.9307V19.0479H92.3074Z" fill="#F2F4F3"/>
<path d="M95.5691 13.8818V13.6572C95.5691 12.8955 95.6798 12.1891 95.9011 11.5381C96.1225 10.8805 96.4415 10.3109 96.8582 9.8291C97.2748 9.34082 97.7794 8.96322 98.3718 8.69629C98.9643 8.42285 99.6283 8.28613 100.364 8.28613C101.106 8.28613 101.774 8.42285 102.366 8.69629C102.965 8.96322 103.473 9.34082 103.889 9.8291C104.313 10.3109 104.635 10.8805 104.856 11.5381C105.078 12.1891 105.188 12.8955 105.188 13.6572V13.8818C105.188 14.6436 105.078 15.3499 104.856 16.001C104.635 16.652 104.313 17.2217 103.889 17.71C103.473 18.1917 102.968 18.5693 102.376 18.8428C101.79 19.1097 101.126 19.2432 100.384 19.2432C99.6414 19.2432 98.974 19.1097 98.3816 18.8428C97.7891 18.5693 97.2813 18.1917 96.8582 17.71C96.4415 17.2217 96.1225 16.652 95.9011 16.001C95.6798 15.3499 95.5691 14.6436 95.5691 13.8818ZM97.3757 13.6572V13.8818C97.3757 14.4092 97.4376 14.9072 97.5613 15.376C97.685 15.8382 97.8705 16.2484 98.1179 16.6064C98.3718 16.9645 98.6876 17.2477 99.0652 17.4561C99.4428 17.6579 99.8822 17.7588 100.384 17.7588C100.878 17.7588 101.311 17.6579 101.682 17.4561C102.06 17.2477 102.372 16.9645 102.62 16.6064C102.867 16.2484 103.053 15.8382 103.177 15.376C103.307 14.9072 103.372 14.4092 103.372 13.8818V13.6572C103.372 13.1364 103.307 12.6449 103.177 12.1826C103.053 11.7139 102.864 11.3005 102.61 10.9424C102.363 10.5778 102.05 10.2913 101.673 10.083C101.302 9.87467 100.865 9.77051 100.364 9.77051C99.8692 9.77051 99.433 9.87467 99.0554 10.083C98.6843 10.2913 98.3718 10.5778 98.1179 10.9424C97.8705 11.3005 97.685 11.7139 97.5613 12.1826C97.4376 12.6449 97.3757 13.1364 97.3757 13.6572Z" fill="#F2F4F3"/>
<path d="M113.919 16.6064V8.48145H115.735V19.0479H114.007L113.919 16.6064ZM114.26 14.3799L115.012 14.3604C115.012 15.0635 114.938 15.7145 114.788 16.3135C114.645 16.9059 114.41 17.4202 114.085 17.8564C113.759 18.2926 113.333 18.6344 112.805 18.8818C112.278 19.1227 111.637 19.2432 110.882 19.2432C110.367 19.2432 109.895 19.1683 109.466 19.0186C109.042 18.8688 108.678 18.6377 108.372 18.3252C108.066 18.0127 107.828 17.6058 107.659 17.1045C107.496 16.6032 107.415 16.001 107.415 15.2979V8.48145H109.221V15.3174C109.221 15.7926 109.274 16.1865 109.378 16.499C109.488 16.805 109.635 17.0492 109.817 17.2314C110.006 17.4072 110.214 17.5309 110.442 17.6025C110.677 17.6742 110.917 17.71 111.165 17.71C111.933 17.71 112.542 17.5635 112.991 17.2705C113.44 16.971 113.762 16.5706 113.958 16.0693C114.16 15.5615 114.26 14.9984 114.26 14.3799Z" fill="#F2F4F3"/>
<path d="M122.913 8.48145V9.86816H117.2V8.48145H122.913ZM119.134 5.91309H120.94V16.4307C120.94 16.7887 120.996 17.0589 121.106 17.2412C121.217 17.4235 121.36 17.5439 121.536 17.6025C121.712 17.6611 121.9 17.6904 122.102 17.6904C122.252 17.6904 122.408 17.6774 122.571 17.6514C122.74 17.6188 122.867 17.5928 122.952 17.5732L122.962 19.0479C122.818 19.0934 122.63 19.1357 122.395 19.1748C122.167 19.2204 121.891 19.2432 121.565 19.2432C121.122 19.2432 120.716 19.1553 120.344 18.9795C119.973 18.8037 119.677 18.5107 119.456 18.1006C119.241 17.6839 119.134 17.124 119.134 16.4209V5.91309Z" fill="#F2F4F3"/>
<path d="M129.417 19.2432C128.681 19.2432 128.014 19.1195 127.415 18.8721C126.822 18.6182 126.311 18.2633 125.882 17.8076C125.458 17.3519 125.133 16.8115 124.905 16.1865C124.677 15.5615 124.563 14.8779 124.563 14.1357V13.7256C124.563 12.8662 124.69 12.1012 124.944 11.4307C125.198 10.7536 125.543 10.1807 125.979 9.71191C126.415 9.24316 126.91 8.88835 127.464 8.64746C128.017 8.40658 128.59 8.28613 129.182 8.28613C129.938 8.28613 130.589 8.41634 131.135 8.67676C131.689 8.93717 132.141 9.30176 132.493 9.77051C132.844 10.2327 133.105 10.7796 133.274 11.4111C133.443 12.0361 133.528 12.7197 133.528 13.4619V14.2725H125.637V12.7979H131.721V12.6611C131.695 12.1924 131.598 11.7367 131.428 11.2939C131.266 10.8512 131.005 10.4867 130.647 10.2002C130.289 9.91374 129.801 9.77051 129.182 9.77051C128.772 9.77051 128.395 9.8584 128.05 10.0342C127.705 10.2035 127.408 10.4574 127.161 10.7959C126.913 11.1344 126.721 11.5479 126.585 12.0361C126.448 12.5244 126.38 13.0876 126.38 13.7256V14.1357C126.38 14.637 126.448 15.109 126.585 15.5518C126.728 15.988 126.933 16.3721 127.2 16.7041C127.473 17.0361 127.802 17.2965 128.186 17.4854C128.577 17.6742 129.02 17.7686 129.514 17.7686C130.152 17.7686 130.693 17.6383 131.135 17.3779C131.578 17.1175 131.966 16.7692 132.298 16.333L133.391 17.2021C133.163 17.5472 132.874 17.876 132.522 18.1885C132.171 18.501 131.738 18.7549 131.223 18.9502C130.716 19.1455 130.113 19.2432 129.417 19.2432Z" fill="#F2F4F3"/>
<path d="M137.444 10.1416V19.0479H135.637V8.48145H137.395L137.444 10.1416ZM140.745 8.42285L140.735 10.1025C140.585 10.07 140.442 10.0505 140.305 10.0439C140.175 10.0309 140.025 10.0244 139.856 10.0244C139.44 10.0244 139.072 10.0895 138.753 10.2197C138.434 10.3499 138.163 10.5322 137.942 10.7666C137.721 11.001 137.545 11.2809 137.415 11.6064C137.291 11.9255 137.21 12.277 137.171 12.6611L136.663 12.9541C136.663 12.3161 136.725 11.7171 136.848 11.1572C136.979 10.5973 137.177 10.1025 137.444 9.67285C137.711 9.23665 138.05 8.89811 138.46 8.65723C138.876 8.40983 139.371 8.28613 139.944 8.28613C140.074 8.28613 140.224 8.30241 140.393 8.33496C140.563 8.361 140.68 8.3903 140.745 8.42285Z" fill="#F2F4F3"/>
</svg>
