<svg width="121" height="116" viewBox="0 0 121 116" fill="none" xmlns="http://www.w3.org/2000/svg">
<g clip-path="url(#clip0_20_2363)">
<path fill-rule="evenodd" clip-rule="evenodd" d="M12.8603 51.5556C5.75497 51.5556 0 45.7878 0 38.6667V12.8889C0 5.76776 5.75497 0 12.8603 0H107.169C114.275 0 120.03 5.76776 120.03 12.8889V38.6667C120.03 45.7878 114.275 51.5556 107.169 51.5556V25.7778C107.169 18.6567 101.414 12.8889 94.3089 12.8889H25.7206C18.6153 12.8889 12.8603 18.6567 12.8603 25.7778V51.5556ZM21.4339 30.0741C19.0654 30.0741 17.1471 28.1515 17.1471 25.7778C17.1471 23.404 19.0654 21.4815 21.4339 21.4815H98.5957C100.964 21.4815 102.882 23.404 102.882 25.7778C102.882 28.1515 100.964 30.0741 98.5957 30.0741V103.111C98.5957 106.532 97.24 109.808 94.8287 112.225C92.4174 114.641 89.1488 116 85.7354 116H34.2942C30.8808 116 27.6121 114.641 25.2009 112.225C22.7896 109.808 21.4339 106.532 21.4339 103.111V30.0741ZM60.0148 73.037C62.3833 73.037 64.3016 74.9596 64.3016 77.3333C64.3016 79.7071 62.3833 81.6296 60.0148 81.6296C58.4287 81.6296 57.0461 80.7596 56.2961 79.4761C55.1172 77.4246 52.4863 76.7211 50.4447 77.9134C48.3924 79.1002 47.6958 81.7263 48.88 83.7831C50.4019 86.4147 52.8238 88.4607 55.7281 89.4864V94.5185C55.7281 96.8923 57.6464 98.8148 60.0149 98.8148C62.3834 98.8148 64.3017 96.8923 64.3017 94.5185V89.4864C69.2957 87.7195 72.8752 82.94 72.8752 77.3333C72.8752 70.2176 67.1149 64.4444 60.0149 64.4444C57.6464 64.4444 55.7281 62.5219 55.7281 60.1482C55.7281 57.7744 57.6464 55.8519 60.0149 55.8519C61.601 55.8519 62.9836 56.7218 63.7336 58.0054C64.9125 60.0569 67.5434 60.7604 69.585 59.5681C71.6373 58.3813 72.3339 55.7552 71.1497 53.6983C69.6278 51.0668 67.2059 49.0208 64.3016 47.9951V42.963C64.3016 40.5892 62.3833 38.6667 60.0148 38.6667C57.6463 38.6667 55.728 40.5892 55.728 42.963V47.9951C50.734 49.762 47.1545 54.5415 47.1545 60.1482C47.1545 67.2639 52.9148 73.037 60.0148 73.037Z" fill="#F8FEFE"/>
</g>
<defs>
<clipPath id="clip0_20_2363">
<rect width="121" height="116" fill="white"/>
</clipPath>
</defs>
</svg>
