<svg width="375" height="47" viewBox="0 0 375 47" fill="none" xmlns="http://www.w3.org/2000/svg">
<g opacity="0.85">
<path d="M190.682 0.226074V46.2261" stroke="url(#paint0_linear_1427_142)" stroke-opacity="0.5" stroke-width="1.15"/>
<g clip-path="url(#clip0_1427_142)">
<path fill-rule="evenodd" clip-rule="evenodd" d="M370.783 31.9864V31.5527H371.062C371.214 31.5527 371.421 31.5643 371.421 31.7498C371.421 31.9507 371.314 31.9864 371.134 31.9864H370.783ZM370.783 32.2907H370.969L371.401 33.0481H371.875L371.397 32.2598C371.644 32.2415 371.847 32.1246 371.847 31.7923C371.847 31.3798 371.562 31.2465 371.08 31.2465H370.383V33.0481H370.783V32.2907ZM372.812 32.1497C372.812 31.0919 371.989 30.4785 371.072 30.4785C370.148 30.4785 369.326 31.0919 369.326 32.1497C369.326 33.2075 370.148 33.8238 371.072 33.8238C371.988 33.8238 372.812 33.2075 372.812 32.1497ZM372.309 32.1497C372.309 32.9206 371.742 33.4383 371.072 33.4383V33.4325C370.382 33.4383 369.825 32.9206 369.825 32.1497C369.825 31.3798 370.383 30.8639 371.072 30.8639C371.743 30.8639 372.309 31.3798 372.309 32.1497Z" fill="white"/>
<path fill-rule="evenodd" clip-rule="evenodd" d="M308.918 14.2492L308.92 33.2408H314.289V14.2492H308.918ZM266.684 14.2241V33.2408H272.102V18.4793L276.327 18.4929C277.717 18.4929 278.677 18.8261 279.347 19.54C280.197 20.4442 280.543 21.9009 280.543 24.568V33.2408H285.791V22.7336C285.791 15.2345 281.007 14.2231 276.325 14.2231H266.685L266.684 14.2241ZM317.563 14.2502V33.2408H326.272C330.911 33.2408 332.426 32.4699 334.063 30.7417C335.221 29.5284 335.969 26.8642 335.969 23.9537C335.969 21.2846 335.335 18.9034 334.231 17.4206C332.242 14.7689 329.377 14.2502 325.098 14.2502H317.563ZM322.889 18.3847H325.198C328.546 18.3847 330.712 19.8878 330.712 23.7856C330.712 27.6853 328.546 29.1875 325.198 29.1875H322.889V18.3847ZM301.178 14.2502L296.697 29.3005L292.403 14.2512L286.608 14.2502L292.739 33.2408H300.478L306.658 14.2502H301.178ZM338.467 33.2408H343.837V14.2512L338.466 14.2502L338.467 33.2408ZM353.518 14.257L346.021 33.234H351.315L352.501 29.8801H361.373L362.496 33.234H368.244L360.69 14.256L353.518 14.257ZM357.003 17.7201L360.256 26.6111H353.648L357.003 17.7201Z" fill="white"/>
<path fill-rule="evenodd" clip-rule="evenodd" d="M232.058 17.4154V14.8023C232.311 14.783 232.568 14.7704 232.83 14.7618C239.985 14.5376 244.68 20.9045 244.68 20.9045C244.68 20.9045 239.609 27.939 234.173 27.939C233.454 27.9419 232.74 27.8279 232.058 27.6009V19.6758C234.843 20.012 235.404 21.2407 237.078 24.0305L240.803 20.893C240.803 20.893 238.084 17.3303 233.501 17.3303C233.003 17.3303 232.526 17.3651 232.058 17.4154ZM232.058 8.78125V12.6868C232.314 12.6665 232.571 12.6501 232.83 12.6404C242.78 12.3062 249.263 20.7935 249.263 20.7935C249.263 20.7935 241.818 29.8391 234.06 29.8391C233.349 29.8391 232.683 29.7734 232.058 29.6623V32.0754C232.593 32.143 233.147 32.1836 233.725 32.1836C240.944 32.1836 246.164 28.5012 251.22 24.1416C252.058 24.812 255.49 26.4436 256.195 27.1584C251.388 31.177 240.186 34.4179 233.835 34.4179C233.241 34.416 232.649 34.3851 232.058 34.3252V37.7158H259.496V8.78125H232.058ZM232.058 27.6009V29.6623C225.381 28.4741 223.527 21.5392 223.527 21.5392C223.527 21.5392 226.734 17.9901 232.058 17.4154V19.6758L232.047 19.6748C229.253 19.3396 227.07 21.9478 227.07 21.9478C227.07 21.9478 228.293 26.3373 232.058 27.6009ZM220.199 21.2388C220.199 21.2388 224.156 15.4041 232.058 14.8023V12.6849C223.306 13.3871 215.727 20.7915 215.727 20.7915C215.727 20.7915 220.019 33.1882 232.058 34.3233V32.0754C223.224 30.9654 220.199 21.2388 220.199 21.2388Z" fill="#76B900"/>
</g>
<g clip-path="url(#clip1_1427_142)">
<path d="M50.4278 11.1226C48.5559 11.1226 46.752 11.3598 46.0173 11.5604C44.948 11.8638 44.6813 12.3359 44.48 13.3144L40.2369 33.0682C40.169 33.4718 40.1035 33.8094 40.1035 34.147C40.1035 35.1255 40.7388 35.764 41.7741 35.764C42.9113 35.764 43.3792 35.0228 43.612 33.8755L44.8147 28.2466C45.6487 28.3469 46.752 28.4496 48.3232 28.4496C55.2407 28.4496 59.5494 24.675 59.5494 18.9776C59.5494 13.9872 56.1064 11.1226 50.4278 11.1226ZM48.1559 25.2132C47.0866 25.2132 46.2501 25.1789 45.4839 25.0786L47.7218 14.5938C48.4226 14.4935 49.4603 14.3566 50.5296 14.3566C54.2054 14.3566 56.0773 16.1105 56.0773 19.0094C56.0748 22.718 53.4004 25.2132 48.1559 25.2132Z" fill="white"/>
<path d="M159.284 29.2578C158.716 29.2578 158.348 29.5954 157.647 30.3709C156.41 31.6527 155.642 32.3597 154.674 32.3597C153.806 32.3597 153.338 31.6527 153.338 30.5054C153.338 29.8645 153.472 29.089 153.639 28.2475L154.876 22.3813H158.585C159.754 22.3813 160.457 21.7061 160.457 20.4927C160.457 19.8176 160.023 19.3136 159.022 19.3136H155.542L156.144 16.5836C156.212 16.1799 156.277 15.8081 156.277 15.4705C156.277 14.5262 155.642 13.8511 154.606 13.8511C153.503 13.8511 153.004 14.5923 152.769 15.7396L152 19.3136H150.429C149.226 19.3136 148.525 19.9888 148.525 21.2022C148.525 21.8773 148.993 22.3813 149.995 22.3813H151.365L150.128 28.179C149.995 28.8199 149.827 29.8645 149.827 30.9433C149.827 33.6733 151.231 35.6622 154.238 35.6622C155.976 35.6622 157.511 34.7864 158.682 33.7394C159.82 32.7291 160.654 31.4815 160.654 30.6717C160.654 29.8987 160.052 29.2578 159.284 29.2578Z" fill="white"/>
<path d="M82.4378 13.1121C82.4378 12.1336 81.7686 11.4927 80.7332 11.4927C79.63 11.4927 79.1305 12.2339 78.8953 13.3812L74.72 32.9662C74.6206 33.3698 74.5527 33.7074 74.5527 34.045C74.5527 35.0235 75.2219 35.662 76.2233 35.662C77.3605 35.662 77.86 34.9208 78.0952 33.7735L82.2705 14.1909C82.3384 13.7848 82.4378 13.4497 82.4378 13.1121Z" fill="white"/>
<path d="M142.077 18.9754C136.731 18.9754 133.089 24.3352 133.089 29.4259C133.089 29.5213 133.091 29.6167 133.094 29.7097C132.255 30.994 131.183 32.3248 130.448 32.3248C129.915 32.3248 129.714 31.8184 129.714 31.0429C129.714 30.0987 129.981 28.5135 130.281 27.1313L133.055 14.1856C133.123 13.7819 133.188 13.4443 133.188 13.1067C133.188 12.1282 132.553 11.4873 131.518 11.4873C130.381 11.4873 129.915 12.2285 129.68 13.3758L128.177 20.3869C127.374 19.5454 126.203 18.9705 124.433 18.9705C120.883 18.9705 117.312 21.7275 115.92 25.9571C114.387 29.9543 113.018 32.3199 111.936 32.3199C111.536 32.3199 111.301 31.9823 111.301 31.4099C111.301 29.7244 112.237 25.6122 112.637 23.6233C112.77 22.8821 112.838 22.5788 112.838 22.1409C112.838 20.6584 110.399 18.9045 107.225 18.9045C103.554 18.9045 100.23 21.2504 98.5641 24.734C96.0885 29.1471 93.8165 32.3199 92.6915 32.3199C92.1896 32.3199 92.0223 31.679 91.8889 31.0723L91.0573 26.4268L96.1685 22.2143C96.6364 21.8106 97.2378 21.2358 97.2378 20.4945C97.2378 19.5845 96.6364 18.9778 95.7345 18.9778C95.0653 18.9778 94.4979 19.3815 93.9305 19.8536L86.2467 26.258L88.8193 14.1905C88.8872 13.7868 88.9866 13.4492 88.9866 13.1116C88.9866 12.1331 88.3174 11.4922 87.2821 11.4922C86.1788 11.4922 85.6793 12.2334 85.4441 13.3807L81.2689 32.9657C81.1695 33.3694 81.1016 33.7069 81.1016 34.0445C81.1016 35.023 81.7708 35.6615 82.7722 35.6615C83.9093 35.6615 84.4088 34.9203 84.644 33.773L85.1799 31.246L88.3198 28.6847L89.0884 32.5939C89.3891 34.1448 90.1917 35.6615 92.2623 35.6615C94.3233 35.6615 95.9454 33.7632 97.5699 31.197C98.0621 33.8855 99.9582 35.6615 102.589 35.6615C105.229 35.6615 107.033 34.0763 108.202 31.953V32.0214C108.202 34.2133 109.305 35.6615 111.243 35.6615C112.996 35.6615 114.451 34.5949 115.75 32.3297C116.487 34.3038 118.136 35.6615 120.43 35.6615C123.136 35.6615 125.073 34.0103 126.31 31.7181V31.9211C126.31 34.3479 127.512 35.664 129.483 35.664C131.224 35.664 132.703 34.6439 133.967 32.9853C134.927 34.6439 136.648 35.664 138.974 35.664C144.32 35.664 147.962 30.3042 147.962 25.1792C147.959 21.5709 145.787 18.9754 142.077 18.9754ZM108.767 25.8201C107.797 30.0326 105.727 32.4275 103.387 32.4275C101.816 32.4275 100.948 31.2142 100.948 29.3941C100.948 25.8201 103.52 21.977 106.961 21.977C107.996 21.977 108.799 22.2803 109.499 22.7182L108.767 25.8201ZM127.376 24.0343C126.307 28.9905 123.868 32.4275 121.196 32.4275C119.727 32.4275 118.856 31.2802 118.856 29.3941C118.856 25.7883 121.329 22.0455 124.637 22.0455C125.907 22.0455 126.875 22.4834 127.578 23.0558L127.376 24.0343ZM139.371 32.4275C137.434 32.4275 136.631 31.0111 136.631 29.2253C136.631 25.9547 138.869 22.2143 141.677 22.2143C143.614 22.2143 144.417 23.6307 144.417 25.4165C144.417 28.719 142.179 32.4275 139.371 32.4275Z" fill="white"/>
<path d="M67.873 18.9756C62.5266 18.9756 58.8848 24.3354 58.8848 29.4261C58.8848 33.0662 61.0573 35.6617 64.7646 35.6617C70.111 35.6617 73.7529 30.3019 73.7529 25.1769C73.7529 21.5711 71.5804 18.9756 67.873 18.9756ZM65.1671 32.4277C63.2298 32.4277 62.4272 31.0113 62.4272 29.2255C62.4272 25.9548 64.6652 22.2145 67.473 22.2145C69.4103 22.2145 70.2128 23.6309 70.2128 25.4167C70.2104 28.7192 67.9724 32.4277 65.1671 32.4277Z" fill="white"/>
<path d="M16.8515 13.2122C20.2568 13.2122 23.0174 11.5923 23.0174 9.59413C23.0174 7.59593 20.2568 5.97607 16.8515 5.97607C13.4461 5.97607 10.6855 7.59593 10.6855 9.59413C10.6855 11.5923 13.4461 13.2122 16.8515 13.2122Z" fill="#E6007A"/>
<path d="M16.8515 40.4734C20.2568 40.4734 23.0174 38.8536 23.0174 36.8554C23.0174 34.8572 20.2568 33.2373 16.8515 33.2373C13.4461 33.2373 10.6855 34.8572 10.6855 36.8554C10.6855 38.8536 13.4461 40.4734 16.8515 40.4734Z" fill="#E6007A"/>
<path d="M8.25922 18.2205C9.96189 15.2452 9.95084 12.0227 8.23453 11.0229C6.51822 10.0232 3.74659 11.6247 2.04391 14.6C0.341231 17.5753 0.352282 20.7978 2.06859 21.7976C3.7849 22.7973 6.55654 21.1958 8.25922 18.2205Z" fill="#E6007A"/>
<path d="M31.6574 31.8494C33.36 28.8741 33.3499 25.6522 31.6348 24.6531C29.9196 23.654 27.1489 25.256 25.4463 28.2313C23.7436 31.2067 23.7537 34.4286 25.4688 35.4277C27.184 36.4268 29.9547 34.8247 31.6574 31.8494Z" fill="#E6007A"/>
<path d="M8.23453 35.4273C9.95084 34.4275 9.96189 31.205 8.25922 28.2297C6.55654 25.2544 3.7849 23.6529 2.06859 24.6526C0.352282 25.6524 0.34123 28.8749 2.04391 31.8502C3.74659 34.8255 6.51822 36.427 8.23453 35.4273Z" fill="#E6007A"/>
<path d="M31.6367 21.7986C33.3519 20.7995 33.362 17.5776 31.6593 14.6023C29.9566 11.6269 27.1859 10.0249 25.4708 11.024C23.7556 12.0231 23.7455 15.245 25.4482 18.2203C27.1509 21.1956 29.9216 22.7977 31.6367 21.7986Z" fill="#E6007A"/>
</g>
</g>
<defs>
<linearGradient id="paint0_linear_1427_142" x1="191.182" y1="0.226074" x2="191.182" y2="46.2261" gradientUnits="userSpaceOnUse">
<stop stop-color="#01DA63" stop-opacity="0"/>
<stop offset="0.495192" stop-color="#01DA63"/>
<stop offset="1" stop-color="#01DA63" stop-opacity="0"/>
</linearGradient>
<clipPath id="clip0_1427_142">
<rect width="158.585" height="28.98" fill="white" transform="translate(215.727 8.73633)"/>
</clipPath>
<clipPath id="clip1_1427_142">
<rect width="159.878" height="34.5" fill="white" transform="translate(0.777344 5.97607)"/>
</clipPath>
</defs>
</svg>
