<svg width="18" height="18" viewBox="0 0 18 18" fill="none" xmlns="http://www.w3.org/2000/svg">
<path d="M5.84322 5.88354C9.32327 1.67196 13.9195 -0.443206 17.6938 0.0778809C17.8122 0.0943408 17.9079 0.190897 17.9243 0.309326L17.9223 0.307373C18.4432 4.08163 16.3281 8.67702 12.1167 12.157C12.0574 12.206 12.0266 12.2757 12.0307 12.3513C12.1125 13.6387 11.8982 16.5977 8.46529 17.9812C8.30999 18.0445 8.13364 17.9445 8.10298 17.781L7.33931 13.7126C7.32501 13.6309 7.24925 13.5756 7.16548 13.5837L6.3354 13.6697C6.25589 13.6777 6.1767 13.6486 6.11958 13.5916L4.40865 11.8816C4.35143 11.8244 4.32332 11.7445 4.3315 11.6648L4.41646 10.8347C4.42647 10.7532 4.36994 10.6784 4.28853 10.6619L0.219193 9.89722C0.0561172 9.86436 -0.0438768 9.69094 0.0189972 9.53589C1.40438 6.10308 4.36133 5.88779 5.64888 5.96948C5.72449 5.97357 5.79417 5.94281 5.84322 5.88354ZM3.61372 12.0408C3.71181 12.0408 3.75654 12.1569 3.68501 12.2244C3.29883 12.5943 2.98834 13.2895 3.15181 14.6013C3.16821 14.73 3.27507 14.836 3.40376 14.8523C4.71538 15.0157 5.41184 14.7072 5.78169 14.321C5.85106 14.2517 5.96589 14.2965 5.96626 14.3943C5.96831 15.23 5.59601 17.6175 1.14986 17.113C1.01707 17.0967 0.906396 16.986 0.892044 16.8552C0.387308 12.4107 2.77596 12.0386 3.61177 12.0427L3.61372 12.0408ZM14.5161 3.48706C13.901 2.87401 12.9055 2.87197 12.2924 3.48706C11.6797 4.1021 11.6776 5.09673 12.2924 5.70972C12.9075 6.32276 13.903 6.32276 14.5161 5.70972C15.1288 5.0947 15.1308 4.10004 14.5161 3.48706Z" fill="black"/>
</svg>
