<svg width="116" height="116" viewBox="0 0 116 116" fill="none" xmlns="http://www.w3.org/2000/svg">
<path fill-rule="evenodd" clip-rule="evenodd" d="M78.88 59.7059V81.4648L86.6465 73.6941C86.9666 73.3744 87.4006 73.1949 87.8529 73.1949C88.3053 73.1949 88.7392 73.3744 89.0593 73.6941L96.8313 81.4729V59.7059H78.88ZM100.249 59.7059H116V116H59.7059V59.7059H75.4682V85.5821C75.4682 85.9195 75.5682 86.2494 75.7556 86.53C75.9431 86.8106 76.2095 87.0293 76.5213 87.1584C76.833 87.2875 77.1761 87.3213 77.507 87.2555C77.838 87.1896 78.1419 87.0271 78.3805 86.7885L87.8584 77.3106L97.3254 86.7775C97.5627 87.0193 97.8666 87.1849 98.1984 87.2533C98.5302 87.3216 98.8749 87.2897 99.1884 87.1614C99.502 87.0332 99.7703 86.8145 99.9591 86.5332C100.148 86.252 100.249 85.9208 100.249 85.5821V59.7059ZM37.1309 59.7059H19.1687V81.4648L26.9475 73.6928C27.2676 73.3731 27.7015 73.1935 28.1539 73.1935C28.6063 73.1935 29.0402 73.3731 29.3603 73.6928L37.1391 81.4716V59.7059H37.1309ZM56.2941 116H0V59.7059H15.7569V85.5821C15.7568 85.9195 15.8568 86.2494 16.0443 86.53C16.2317 86.8106 16.4982 87.0293 16.8099 87.1584C17.1217 87.2875 17.4647 87.3213 17.7957 87.2555C18.1266 87.1896 18.4306 87.0271 18.6692 86.7885L28.1471 77.3106L37.614 86.7775C37.8513 87.0193 38.1553 87.1849 38.4871 87.2533C38.8189 87.3216 39.1635 87.2897 39.4771 87.1614C39.7906 87.0332 40.0589 86.8145 40.2477 86.5332C40.4365 86.252 40.5373 85.9208 40.5372 85.5821V59.7059H56.2941V116ZM66.9784 0H49.0216V21.7589L56.8004 13.98C57.1205 13.6604 57.5544 13.4808 58.0068 13.4808C58.4592 13.4808 58.8931 13.6604 59.2132 13.98L66.9921 21.7589V0H66.9784ZM58 56.2941H29.8529V0H45.6098V25.8762C45.6098 26.2136 45.7098 26.5435 45.8972 26.8241C46.0847 27.1047 46.3511 27.3234 46.6629 27.4525C46.9746 27.5817 47.3177 27.6154 47.6486 27.5496C47.9796 27.4837 48.2835 27.3212 48.5221 27.0826L58 17.6047L67.467 27.0703C67.7042 27.312 68.008 27.4775 68.3397 27.546C68.6714 27.6144 69.0159 27.5825 69.3294 27.4544C69.6429 27.3264 69.9112 27.1079 70.1001 26.8268C70.289 26.5458 70.39 26.2148 70.3902 25.8762V0H86.1471V56.2941H58Z" fill="#FBFFFD"/>
</svg>
