<svg width="123" height="24" viewBox="0 0 123 24" fill="none" xmlns="http://www.w3.org/2000/svg">
<g clip-path="url(#clip0_308_118)">
<path d="M3.51167 7.01306H1.13953V5.07924H3.51167V1.39209H5.62598V5.07924H8.95216V7.01306H5.62598V14.7741C5.62598 15.3242 5.72913 15.7195 5.9354 15.9602C6.15886 16.1836 6.53702 16.2954 7.0699 16.2954H9.3647V18.2292H6.94098C5.70333 18.2292 4.81808 17.9541 4.28521 17.4041C3.76952 16.854 3.51167 15.9859 3.51167 14.7999V7.01306Z" fill="#F2F4F3"/>
<path d="M16.1768 18.3841C14.9048 18.3841 13.7702 18.1006 12.7732 17.5333C11.7934 16.9661 11.0285 16.1753 10.4784 15.1612C9.92835 14.147 9.65332 12.9781 9.65332 11.6545C9.65332 10.3309 9.92835 9.16202 10.4784 8.14783C11.0285 7.13365 11.7934 6.34294 12.7732 5.77568C13.7702 5.20843 14.9048 4.9248 16.1768 4.9248C17.4488 4.9248 18.5747 5.20843 19.5545 5.77568C20.5515 6.34294 21.325 7.13365 21.875 8.14783C22.4251 9.16202 22.7002 10.3309 22.7002 11.6545C22.7002 12.9781 22.4251 14.147 21.875 15.1612C21.325 16.1753 20.5515 16.9661 19.5545 17.5333C18.5747 18.1006 17.4488 18.3841 16.1768 18.3841ZM16.1768 16.502C17.0362 16.502 17.7925 16.2957 18.4458 15.8831C19.1161 15.4705 19.6318 14.8948 19.9928 14.1556C20.3538 13.4164 20.5342 12.5828 20.5342 11.6545C20.5342 10.7263 20.3538 9.89256 19.9928 9.15342C19.6318 8.41427 19.1161 7.83843 18.4458 7.42588C17.7925 7.01333 17.0362 6.80706 16.1768 6.80706C15.3172 6.80706 14.5523 7.01333 13.8819 7.42588C13.2288 7.83843 12.7217 8.41427 12.3606 9.15342C11.9997 9.89256 11.8192 10.7263 11.8192 11.6545C11.8192 12.5828 11.9997 13.4164 12.3606 14.1556C12.7217 14.8948 13.2288 15.4705 13.8819 15.8831C14.5523 16.2957 15.3172 16.502 16.1768 16.502Z" fill="#F2F4F3"/>
<path d="M37.1802 5.07951V17.5848C37.1802 21.5557 35.0058 23.541 30.6568 23.541C28.9551 23.541 27.5627 23.1543 26.4798 22.3807C25.4141 21.6072 24.7952 20.5071 24.6233 19.0804H26.7893C26.9611 19.9054 27.3994 20.5415 28.1042 20.9884C28.809 21.4353 29.7114 21.6588 30.8115 21.6588C33.6478 21.6588 35.0659 20.275 35.0659 17.5076V15.9605C34.1206 17.5762 32.6165 18.3841 30.5537 18.3841C29.3333 18.3841 28.2417 18.1177 27.2791 17.5848C26.3337 17.052 25.5859 16.2784 25.0359 15.2642C24.503 14.2501 24.2366 13.0469 24.2366 11.6545C24.2366 10.3309 24.503 9.16202 25.0359 8.14783C25.5859 7.13365 26.3423 6.34294 27.3049 5.77568C28.2675 5.20843 29.3504 4.9248 30.5537 4.9248C31.6194 4.9248 32.5305 5.13967 33.2869 5.56941C34.0432 5.98196 34.6362 6.575 35.0659 7.34852L35.3496 5.07951H37.1802ZM30.76 16.502C31.6023 16.502 32.3501 16.3042 33.0032 15.9089C33.6736 15.4964 34.1893 14.929 34.5503 14.2071C34.9112 13.468 35.0918 12.6343 35.0918 11.7061C35.0918 10.7606 34.9112 9.91835 34.5503 9.1792C34.1893 8.42286 33.6736 7.83843 33.0032 7.42588C32.3501 7.01333 31.6023 6.80706 30.76 6.80706C29.4536 6.80706 28.3965 7.26258 27.5886 8.17362C26.7978 9.06747 26.4024 10.2278 26.4024 11.6545C26.4024 13.0813 26.7978 14.2501 27.5886 15.1612C28.3965 16.055 29.4536 16.502 30.76 16.502Z" fill="#F2F4F3"/>
<path d="M39.1722 11.6545C39.1722 10.3137 39.4301 9.13623 39.9457 8.12205C40.4786 7.10787 41.2177 6.32575 42.1632 5.77568C43.1086 5.20843 44.1916 4.9248 45.412 4.9248C46.6152 4.9248 47.681 5.17405 48.6093 5.67254C49.5375 6.17104 50.268 6.893 50.8009 7.83843C51.3337 8.78385 51.6174 9.89257 51.6518 11.1646C51.6518 11.3537 51.6345 11.6545 51.6002 12.067H41.3896V12.2476C41.424 13.5367 41.8193 14.5681 42.5757 15.3416C43.332 16.1152 44.3205 16.502 45.5409 16.502C46.4863 16.502 47.2856 16.2698 47.9389 15.8057C48.6093 15.3245 49.0561 14.6626 49.2797 13.8204H51.4197C51.1618 15.1612 50.5173 16.2613 49.4858 17.1207C48.4545 17.963 47.1911 18.3841 45.6956 18.3841C44.3892 18.3841 43.2461 18.1092 42.2663 17.5591C41.2865 16.9918 40.5216 16.2012 39.9716 15.1869C39.4386 14.1556 39.1722 12.9781 39.1722 11.6545ZM49.4601 10.3137C49.3569 9.19639 48.9358 8.32833 48.1967 7.7095C47.4748 7.09068 46.5551 6.78127 45.4377 6.78127C44.4408 6.78127 43.5641 7.10787 42.8078 7.76107C42.0514 8.41427 41.6217 9.26515 41.5185 10.3137H49.4601Z" fill="#F2F4F3"/>
<path d="M54.3661 7.01306H51.994V5.07924H54.3661V1.39209H56.4804V5.07924H59.8066V7.01306H56.4804V14.7741C56.4804 15.3242 56.5836 15.7195 56.7899 15.9602C57.0133 16.1836 57.3915 16.2954 57.9244 16.2954H60.2192V18.2292H57.7955C56.5578 18.2292 55.6725 17.9541 55.1397 17.4041C54.624 16.854 54.3661 15.9859 54.3661 14.7999V7.01306Z" fill="#F2F4F3"/>
<path d="M67.7453 4.92448C69.3439 4.92448 70.6331 5.40578 71.6129 6.3684C72.5927 7.331 73.0826 8.84368 73.0826 10.9064V18.2292H70.9683V11.0353C70.9683 9.67737 70.6589 8.646 70.0401 7.94123C69.4213 7.21928 68.536 6.85829 67.3843 6.85829C66.1639 6.85829 65.1927 7.28803 64.4707 8.1475C63.7659 9.00698 63.4135 10.1759 63.4135 11.6542V18.2292H61.2992V0.180176H63.4135V7.24506C63.8433 6.55748 64.4105 5.99882 65.1153 5.56908C65.8373 5.13934 66.7139 4.92448 67.7453 4.92448Z" fill="#F2F4F3"/>
<path d="M74.8896 11.6545C74.8896 10.3137 75.1475 9.13623 75.6631 8.12205C76.1961 7.10787 76.9351 6.32575 77.8806 5.77568C78.826 5.20843 79.909 4.9248 81.1294 4.9248C82.3326 4.9248 83.3984 5.17405 84.3267 5.67254C85.2549 6.17104 85.9854 6.893 86.5183 7.83843C87.0511 8.78385 87.3348 9.89257 87.3692 11.1646C87.3692 11.3537 87.3519 11.6545 87.3177 12.067H77.107V12.2476C77.1414 13.5367 77.5367 14.5681 78.2931 15.3416C79.0494 16.1152 80.0379 16.502 81.2583 16.502C82.2037 16.502 83.003 16.2698 83.6563 15.8057C84.3267 15.3245 84.7735 14.6626 84.997 13.8204H87.1371C86.8793 15.1612 86.2347 16.2613 85.2033 17.1207C84.1719 17.963 82.9085 18.3841 81.413 18.3841C80.1066 18.3841 78.9635 18.1092 77.9837 17.5591C77.0039 16.9918 76.239 16.2012 75.689 15.1869C75.1561 14.1556 74.8896 12.9781 74.8896 11.6545ZM85.1775 10.3137C85.0743 9.19639 84.6532 8.32833 83.9141 7.7095C83.1922 7.09068 82.2725 6.78127 81.1551 6.78127C80.1582 6.78127 79.2815 7.10787 78.5252 7.76107C77.7689 8.41427 77.3391 9.26515 77.2359 10.3137H85.1775Z" fill="#F2F4F3"/>
<path d="M96.0358 5.0791V7.14183H94.9787C93.7238 7.14183 92.8214 7.56298 92.2713 8.40526C91.7385 9.24755 91.4719 10.2875 91.4719 11.5252V18.2291H89.3577V5.0791H91.1884L91.4719 7.06448C91.8501 6.46285 92.3401 5.98155 92.9417 5.62056C93.5434 5.25959 94.377 5.0791 95.4428 5.0791H96.0358Z" fill="#F2F4F3"/>
<path d="M117.571 16.2957V18.2295H116.41C115.568 18.2295 114.967 18.0576 114.606 17.7137C114.245 17.37 114.056 16.8629 114.039 16.1925C113.024 17.6536 111.555 18.3841 109.63 18.3841C108.168 18.3841 106.991 18.0404 106.097 17.3528C105.22 16.6653 104.782 15.7284 104.782 14.5423C104.782 13.2188 105.229 12.2046 106.123 11.4998C107.034 10.795 108.349 10.4426 110.068 10.4426H113.935V9.54018C113.935 8.6807 113.643 8.01031 113.059 7.52901C112.492 7.04771 111.692 6.80706 110.661 6.80706C109.75 6.80706 108.994 7.01333 108.392 7.42588C107.807 7.82123 107.446 8.35411 107.309 9.0245H105.195C105.349 7.73529 105.917 6.7297 106.896 6.00774C107.893 5.28579 109.183 4.9248 110.764 4.9248C112.449 4.9248 113.746 5.33735 114.657 6.16245C115.585 6.97036 116.05 8.13924 116.05 9.6691V15.3416C116.05 15.9776 116.342 16.2957 116.927 16.2957H117.571ZM113.935 12.2217H109.862C107.902 12.2217 106.922 12.9522 106.922 14.4134C106.922 15.0666 107.18 15.5909 107.696 15.9862C108.211 16.3816 108.908 16.5793 109.784 16.5793C111.073 16.5793 112.088 16.2441 112.827 15.5737C113.566 14.8861 113.935 13.9837 113.935 12.8663V12.2217Z" fill="#F2F4F3"/>
<path d="M119.83 0C120.225 0 120.552 0.128921 120.809 0.386763C121.067 0.644606 121.197 0.971206 121.197 1.36656C121.197 1.76192 121.067 2.08853 120.809 2.34637C120.552 2.60421 120.225 2.73313 119.83 2.73313C119.434 2.73313 119.107 2.60421 118.85 2.34637C118.592 2.08853 118.463 1.76192 118.463 1.36656C118.463 0.971206 118.592 0.644606 118.85 0.386763C119.107 0.128921 119.434 0 119.83 0ZM118.773 5.0795H120.887V18.2295H118.773V5.0795Z" fill="#F2F4F3"/>
<path d="M100.648 16.2274C100.648 17.3332 99.7407 18.2297 98.6214 18.2297C97.5022 18.2297 96.5948 17.3332 96.5948 16.2274C96.5948 15.1216 97.5022 14.2251 98.6214 14.2251C99.7407 14.2251 100.648 15.1216 100.648 16.2274Z" fill="#0F6FFF"/>
</g>
<defs>
<clipPath id="clip0_308_118">
<rect width="122.286" height="24" fill="white"/>
</clipPath>
</defs>
</svg>
