<svg width="516" height="150" viewBox="0 0 516 150" fill="none" xmlns="http://www.w3.org/2000/svg">
<g clip-path="url(#clip0_20_2356)">
<mask id="mask0_20_2356" style="mask-type:luminance" maskUnits="userSpaceOnUse" x="0" y="0" width="516" height="150">
<path d="M516 0H0V150H516V0Z" fill="white"/>
</mask>
<g mask="url(#mask0_20_2356)">
<path d="M441.5 -2H74.5C32.2502 -2 -2 32.2502 -2 74.5V75.5C-2 117.75 32.2502 152 74.5 152H441.5C483.75 152 518 117.75 518 75.5V74.5C518 32.2502 483.75 -2 441.5 -2Z" fill="url(#paint0_linear_20_2356)"/>
<path d="M-74.6471 -159.261H-119V-120.222M-74.6471 -159.261V-120.222M-74.6471 -159.261H-30.2941M-119 -120.222H-74.6471M-119 -120.222V-81.1826M-74.6471 -120.222H-30.2941M-74.6471 -120.222V-81.1826M-30.2941 -159.261V-120.222M-30.2941 -159.261H14.0588M-30.2941 -120.222H14.0588M-30.2941 -120.222V-81.1826M-74.6471 -81.1826H-119M-74.6471 -81.1826H-30.2941M-74.6471 -81.1826V-42.1435M-119 -81.1826V-42.1435M14.0588 -159.261V-120.222M14.0588 -159.261H58.4118M14.0588 -120.222H58.4118M14.0588 -120.222V-81.1826M-30.2941 -81.1826H14.0588M-30.2941 -81.1826V-42.1435M58.4118 -159.261V-120.222M58.4118 -159.261H102.765M58.4118 -120.222H102.765M58.4118 -120.222V-81.1826M14.0588 -81.1826H58.4118M14.0588 -81.1826V-42.1435M102.765 -159.261V-120.222M102.765 -159.261H147.118M102.765 -120.222H147.118M102.765 -120.222V-81.1826M58.4118 -81.1826H102.765M58.4118 -81.1826V-42.1435M147.118 -159.261V-120.222M147.118 -159.261H191.471M147.118 -120.222H191.471M147.118 -120.222V-81.1826M102.765 -81.1826H147.118M102.765 -81.1826V-42.1435M191.471 -159.261V-120.222M191.471 -159.261H235.824M191.471 -120.222H235.824M191.471 -120.222V-81.1826M147.118 -81.1826H191.471M147.118 -81.1826V-42.1435M235.824 -159.261V-120.222M235.824 -159.261H280.176M235.824 -120.222H280.176M235.824 -120.222V-81.1826M191.471 -81.1826H235.824M191.471 -81.1826V-42.1435M280.176 -159.261V-120.222M280.176 -159.261H324.529M280.176 -120.222H324.529M280.176 -120.222V-81.1826M235.824 -81.1826H280.176M235.824 -81.1826V-42.1435M324.529 -159.261V-120.222M324.529 -159.261H368.882M324.529 -120.222H368.882M324.529 -120.222V-81.1826M280.176 -81.1826H324.529M280.176 -81.1826V-42.1435M368.882 -159.261V-120.222M368.882 -159.261H413.235M368.882 -120.222H413.235M368.882 -120.222V-81.1826M324.529 -81.1826H368.882M324.529 -81.1826V-42.1435M413.235 -159.261V-120.222M413.235 -159.261H457.588M413.235 -120.222H457.588M413.235 -120.222V-81.1826M368.882 -81.1826H413.235M368.882 -81.1826V-42.1435M457.588 -159.261V-120.222M457.588 -159.261H501.941M457.588 -120.222H501.941M457.588 -120.222V-81.1826M413.235 -81.1826H457.588M413.235 -81.1826V-42.1435M501.941 -159.261V-120.222M501.941 -159.261H546.294M501.941 -120.222H546.294M501.941 -120.222V-81.1826M457.588 -81.1826H501.941M457.588 -81.1826V-42.1435M546.294 -159.261V-120.222M546.294 -159.261H590.647M546.294 -120.222H590.647M546.294 -120.222V-81.1826M501.941 -81.1826H546.294M501.941 -81.1826V-42.1435M590.647 -159.261V-120.222M590.647 -159.261H635V-120.222M590.647 -120.222H635M590.647 -120.222V-81.1826M546.294 -81.1826H590.647M546.294 -81.1826V-42.1435M635 -120.222V-81.1826M590.647 -81.1826H635M590.647 -81.1826V-42.1435M635 -81.1826V-42.1435M-74.6471 -42.1435H-119M-74.6471 -42.1435H-30.2941M-74.6471 -42.1435V-3.10435M-119 -42.1435V-3.10435M-30.2941 -42.1435H14.0588M-30.2941 -42.1435V-3.10435M14.0588 -42.1435H58.4118M14.0588 -42.1435V-3.10435M58.4118 -42.1435H102.765M58.4118 -42.1435V-3.10435M102.765 -42.1435H147.118M102.765 -42.1435V-3.10435M147.118 -42.1435H191.471M147.118 -42.1435V-3.10435M191.471 -42.1435H235.824M191.471 -42.1435V-3.10435M235.824 -42.1435H280.176M235.824 -42.1435V-3.10435M280.176 -42.1435H324.529M280.176 -42.1435V-3.10435M324.529 -42.1435H368.882M324.529 -42.1435V-3.10435M368.882 -42.1435H413.235M368.882 -42.1435V-3.10435M413.235 -42.1435H457.588M413.235 -42.1435V-3.10435M457.588 -42.1435H501.941M457.588 -42.1435V-3.10435M501.941 -42.1435H546.294M501.941 -42.1435V-3.10435M546.294 -42.1435H590.647M546.294 -42.1435V-3.10435M590.647 -42.1435H635M590.647 -42.1435V-3.10435M635 -42.1435V-3.10435M-74.6471 -3.10435H-119M-74.6471 -3.10435H-30.2941M-74.6471 -3.10435V35.9348M-119 -3.10435V35.9348M-30.2941 -3.10435H14.0588M-30.2941 -3.10435V35.9348M14.0588 -3.10435H58.4118M14.0588 -3.10435V35.9348M58.4118 -3.10435H102.765M58.4118 -3.10435V35.9348M102.765 -3.10435H147.118M102.765 -3.10435V35.9348M147.118 -3.10435H191.471M147.118 -3.10435V35.9348M191.471 -3.10435H235.824M191.471 -3.10435V35.9348M235.824 -3.10435H280.176M235.824 -3.10435V35.9348M280.176 -3.10435H324.529M280.176 -3.10435V35.9348M324.529 -3.10435H368.882M324.529 -3.10435V35.9348M368.882 -3.10435H413.235M368.882 -3.10435V35.9348M413.235 -3.10435H457.588M413.235 -3.10435V35.9348M457.588 -3.10435H501.941M457.588 -3.10435V35.9348M501.941 -3.10435H546.294M501.941 -3.10435V35.9348M546.294 -3.10435H590.647M546.294 -3.10435V35.9348M590.647 -3.10435H635M590.647 -3.10435V35.9348M635 -3.10435V35.9348M-74.6471 35.9348H-119M-74.6471 35.9348H-30.2941M-74.6471 35.9348V74.974M-119 35.9348V74.974M-30.2941 35.9348H14.0588M-30.2941 35.9348V74.974M14.0588 35.9348H58.4118M14.0588 35.9348V74.974M58.4118 35.9348H102.765M58.4118 35.9348V74.974M102.765 35.9348H147.118M102.765 35.9348V74.974M147.118 35.9348H191.471M147.118 35.9348V74.974M191.471 35.9348H235.824M191.471 35.9348V74.974M235.824 35.9348H280.176M235.824 35.9348V74.974M280.176 35.9348H324.529M280.176 35.9348V74.974M324.529 35.9348H368.882M324.529 35.9348V74.974M368.882 35.9348H413.235M368.882 35.9348V74.974M413.235 35.9348H457.588M413.235 35.9348V74.974M457.588 35.9348H501.941M457.588 35.9348V74.974M501.941 35.9348H546.294M501.941 35.9348V74.974M546.294 35.9348H590.647M546.294 35.9348V74.974M590.647 35.9348H635M590.647 35.9348V74.974M635 35.9348V74.974M-74.6471 74.974H-119M-74.6471 74.974H-30.2941M-74.6471 74.974V114.013M-119 74.974V114.013M-30.2941 74.974H14.0588M-30.2941 74.974V114.013M14.0588 74.974H58.4118M14.0588 74.974V114.013M58.4118 74.974H102.765M58.4118 74.974V114.013M102.765 74.974H147.118M102.765 74.974V114.013M147.118 74.974H191.471M147.118 74.974V114.013M191.471 74.974H235.824M191.471 74.974V114.013M235.824 74.974H280.176M235.824 74.974V114.013M280.176 74.974H324.529M280.176 74.974V114.013M324.529 74.974H368.882M324.529 74.974V114.013M368.882 74.974H413.235M368.882 74.974V114.013M413.235 74.974H457.588M413.235 74.974V114.013M457.588 74.974H501.941M457.588 74.974V114.013M501.941 74.974H546.294M501.941 74.974V114.013M546.294 74.974H590.647M546.294 74.974V114.013M590.647 74.974H635M590.647 74.974V114.013M635 74.974V114.013M-74.6471 114.013H-119M-74.6471 114.013H-30.2941M-74.6471 114.013V153.052M-119 114.013V153.052M-30.2941 114.013H14.0588M-30.2941 114.013V153.052M14.0588 114.013H58.4118M14.0588 114.013V153.052M58.4118 114.013H102.765M58.4118 114.013V153.052M102.765 114.013H147.118M102.765 114.013V153.052M147.118 114.013H191.471M147.118 114.013V153.052M191.471 114.013H235.824M191.471 114.013V153.052M235.824 114.013H280.176M235.824 114.013V153.052M280.176 114.013H324.529M280.176 114.013V153.052M324.529 114.013H368.882M324.529 114.013V153.052M368.882 114.013H413.235M368.882 114.013V153.052M413.235 114.013H457.588M413.235 114.013V153.052M457.588 114.013H501.941M457.588 114.013V153.052M501.941 114.013H546.294M501.941 114.013V153.052M546.294 114.013H590.647M546.294 114.013V153.052M590.647 114.013H635M590.647 114.013V153.052M635 114.013V153.052M-74.6471 153.052H-119M-74.6471 153.052H-30.2941M-74.6471 153.052V192.092M-119 153.052V192.092M-30.2941 153.052H14.0588M-30.2941 153.052V192.092M14.0588 153.052H58.4118M14.0588 153.052V192.092M58.4118 153.052H102.765M58.4118 153.052V192.092M102.765 153.052H147.118M102.765 153.052V192.092M147.118 153.052H191.471M147.118 153.052V192.092M191.471 153.052H235.824M191.471 153.052V192.092M235.824 153.052H280.176M235.824 153.052V192.092M280.176 153.052H324.529M280.176 153.052V192.092M324.529 153.052H368.882M324.529 153.052V192.092M368.882 153.052H413.235M368.882 153.052V192.092M413.235 153.052H457.588M413.235 153.052V192.092M457.588 153.052H501.941M457.588 153.052V192.092M501.941 153.052H546.294M501.941 153.052V192.092M546.294 153.052H590.647M546.294 153.052V192.092M590.647 153.052H635M590.647 153.052V192.092M635 153.052V192.092M-74.6471 192.092H-119M-74.6471 192.092H-30.2941M-74.6471 192.092V231.131M-119 192.092V231.131M-30.2941 192.092H14.0588M-30.2941 192.092V231.131M14.0588 192.092H58.4118M14.0588 192.092V231.131M58.4118 192.092H102.765M58.4118 192.092V231.131M102.765 192.092H147.118M102.765 192.092V231.131M147.118 192.092H191.471M147.118 192.092V231.131M191.471 192.092H235.824M191.471 192.092V231.131M235.824 192.092H280.176M235.824 192.092V231.131M280.176 192.092H324.529M280.176 192.092V231.131M324.529 192.092H368.882M324.529 192.092V231.131M368.882 192.092H413.235M368.882 192.092V231.131M413.235 192.092H457.588M413.235 192.092V231.131M457.588 192.092H501.941M457.588 192.092V231.131M501.941 192.092H546.294M501.941 192.092V231.131M546.294 192.092H590.647M546.294 192.092V231.131M590.647 192.092H635M590.647 192.092V231.131M635 192.092V231.131M-74.6471 231.131H-119M-74.6471 231.131H-30.2941M-74.6471 231.131V270.17M-119 231.131V270.17M-30.2941 231.131H14.0588M-30.2941 231.131V270.17M14.0588 231.131H58.4118M14.0588 231.131V270.17M58.4118 231.131H102.765M58.4118 231.131V270.17M102.765 231.131H147.118M102.765 231.131V270.17M147.118 231.131H191.471M147.118 231.131V270.17M191.471 231.131H235.824M191.471 231.131V270.17M235.824 231.131H280.176M235.824 231.131V270.17M280.176 231.131H324.529M280.176 231.131V270.17M324.529 231.131H368.882M324.529 231.131V270.17M368.882 231.131H413.235M368.882 231.131V270.17M413.235 231.131H457.588M413.235 231.131V270.17M457.588 231.131H501.941M457.588 231.131V270.17M501.941 231.131H546.294M501.941 231.131V270.17M546.294 231.131H590.647M546.294 231.131V270.17M590.647 231.131H635M590.647 231.131V270.17M635 231.131V270.17M-74.6471 270.17H-119M-74.6471 270.17H-30.2941M-74.6471 270.17V309.209M-119 270.17V309.209H-74.6471M-30.2941 270.17H14.0588M-30.2941 270.17V309.209M14.0588 270.17H58.4118M14.0588 270.17V309.209M58.4118 270.17H102.765M58.4118 270.17V309.209M102.765 270.17H147.118M102.765 270.17V309.209M147.118 270.17H191.471M147.118 270.17V309.209M191.471 270.17H235.824M191.471 270.17V309.209M235.824 270.17H280.176M235.824 270.17V309.209M280.176 270.17H324.529M280.176 270.17V309.209M324.529 270.17H368.882M324.529 270.17V309.209M368.882 270.17H413.235M368.882 270.17V309.209M413.235 270.17H457.588M413.235 270.17V309.209M457.588 270.17H501.941M457.588 270.17V309.209M501.941 270.17H546.294M501.941 270.17V309.209M546.294 270.17H590.647M546.294 270.17V309.209M590.647 270.17H635M590.647 270.17V309.209M635 270.17V309.209H590.647M-74.6471 309.209H-30.2941M-30.2941 309.209H14.0588M14.0588 309.209H58.4118M58.4118 309.209H102.765M102.765 309.209H147.118M147.118 309.209H191.471M191.471 309.209H235.824M235.824 309.209H280.176M280.176 309.209H324.529M324.529 309.209H368.882M368.882 309.209H413.235M413.235 309.209H457.588M457.588 309.209H501.941M501.941 309.209H546.294M546.294 309.209H590.647" stroke="url(#paint1_linear_20_2356)" stroke-width="1.0896"/>
</g>
</g>
<defs>
<linearGradient id="paint0_linear_20_2356" x1="-2" y1="75" x2="518" y2="75" gradientUnits="userSpaceOnUse">
<stop stop-color="white" stop-opacity="0"/>
<stop offset="1" stop-color="#01D3DA" stop-opacity="0.3"/>
</linearGradient>
<linearGradient id="paint1_linear_20_2356" x1="-24.2052" y1="75.0021" x2="541.295" y2="75.0021" gradientUnits="userSpaceOnUse">
<stop stop-color="white" stop-opacity="0"/>
<stop offset="1" stop-color="white" stop-opacity="0.9"/>
</linearGradient>
<clipPath id="clip0_20_2356">
<rect width="516" height="150" fill="white"/>
</clipPath>
</defs>
</svg>
