<svg width="238" height="177" viewBox="0 0 238 177" fill="none" xmlns="http://www.w3.org/2000/svg">
<g clip-path="url(#clip0_20_2092)">
<mask id="mask0_20_2092" style="mask-type:luminance" maskUnits="userSpaceOnUse" x="0" y="0" width="238" height="177">
<path d="M238 177V0L0 0V177L238 177Z" fill="white"/>
</mask>
<g mask="url(#mask0_20_2092)">
<path d="M214 0H24C10.7452 0 0 10.7452 0 24V153C0 166.255 10.7452 177 24 177H214C227.255 177 238 166.255 238 153V24C238 10.7452 227.255 0 214 0Z" fill="url(#paint0_linear_20_2092)"/>
<path d="M309 -250.824V-285H270M309 -250.824H270M309 -250.824V-216.647M270 -285V-250.824M270 -285H231M270 -250.824V-216.647M270 -250.824H231M309 -216.647H270M309 -216.647V-182.471M270 -216.647V-182.471M270 -216.647H231M231 -250.824V-285M231 -250.824V-216.647M231 -250.824H192M231 -285H192M309 -182.471H270M309 -182.471V-148.294M270 -182.471V-148.294M270 -182.471H231M231 -216.647V-182.471M231 -216.647H192M309 -148.294H270M309 -148.294V-114.118M270 -148.294V-114.118M270 -148.294H231M231 -182.471V-148.294M231 -182.471H192M309 -114.118H270M309 -114.118V-79.9412M270 -114.118V-79.9412M270 -114.118H231M231 -148.294V-114.118M231 -148.294H192M309 -79.9412H270M309 -79.9412V-45.7647M270 -79.9412V-45.7647M270 -79.9412H231M231 -114.118V-79.9412M231 -114.118H192M309 -45.7647H270M309 -45.7647V-11.5882M270 -45.7647V-11.5882M270 -45.7647H231M231 -79.9412V-45.7647M231 -79.9412H192M309 -11.5882H270M309 -11.5882V22.5882M270 -11.5882V22.5882M270 -11.5882H231M231 -45.7647V-11.5882M231 -45.7647H192M309 22.5882H270M309 22.5882V56.7647M270 22.5882V56.7647M270 22.5882H231M231 -11.5882V22.5882M231 -11.5882H192M309 56.7647H270M309 56.7647V90.9412M270 56.7647V90.9412M270 56.7647H231M231 22.5882V56.7647M231 22.5882H192M309 90.9412H270M309 90.9412V125.118M270 90.9412V125.118M270 90.9412H231M231 56.7647V90.9412M231 56.7647H192M309 125.118H270M309 125.118V159.294M270 125.118V159.294M270 125.118H231M231 90.9412V125.118M231 90.9412H192M309 159.294H270M309 159.294V193.471M270 159.294V193.471M270 159.294H231M231 125.118V159.294M231 125.118H192M309 193.471H270M309 193.471V227.647M270 193.471V227.647M270 193.471H231M231 159.294V193.471M231 159.294H192M309 227.647H270M309 227.647V261.824M270 227.647V261.824M270 227.647H231M231 193.471V227.647M231 193.471H192M309 261.824H270M309 261.824V296H270M270 261.824V296M270 261.824H231M231 227.647V261.824M231 227.647H192M270 296H231M231 261.824V296M231 261.824H192M231 296H192M192 -250.824V-285M192 -250.824V-216.647M192 -250.824H153M192 -285H153M192 -216.647V-182.471M192 -216.647H153M192 -182.471V-148.294M192 -182.471H153M192 -148.294V-114.118M192 -148.294H153M192 -114.118V-79.9412M192 -114.118H153M192 -79.9412V-45.7647M192 -79.9412H153M192 -45.7647V-11.5882M192 -45.7647H153M192 -11.5882V22.5882M192 -11.5882H153M192 22.5882V56.7647M192 22.5882H153M192 56.7647V90.9412M192 56.7647H153M192 90.9412V125.118M192 90.9412H153M192 125.118V159.294M192 125.118H153M192 159.294V193.471M192 159.294H153M192 193.471V227.647M192 193.471H153M192 227.647V261.824M192 227.647H153M192 261.824V296M192 261.824H153M192 296H153M153 -250.824V-285M153 -250.824V-216.647M153 -250.824H114M153 -285H114M153 -216.647V-182.471M153 -216.647H114M153 -182.471V-148.294M153 -182.471H114M153 -148.294V-114.118M153 -148.294H114M153 -114.118V-79.9412M153 -114.118H114M153 -79.9412V-45.7647M153 -79.9412H114M153 -45.7647V-11.5882M153 -45.7647H114M153 -11.5882V22.5882M153 -11.5882H114M153 22.5882V56.7647M153 22.5882H114M153 56.7647V90.9412M153 56.7647H114M153 90.9412V125.118M153 90.9412H114M153 125.118V159.294M153 125.118H114M153 159.294V193.471M153 159.294H114M153 193.471V227.647M153 193.471H114M153 227.647V261.824M153 227.647H114M153 261.824V296M153 261.824H114M153 296H114M114 -250.824V-285M114 -250.824V-216.647M114 -250.824H75M114 -285H75M114 -216.647V-182.471M114 -216.647H75M114 -182.471V-148.294M114 -182.471H75M114 -148.294V-114.118M114 -148.294H75M114 -114.118V-79.9412M114 -114.118H75M114 -79.9412V-45.7647M114 -79.9412H75M114 -45.7647V-11.5882M114 -45.7647H75M114 -11.5882V22.5882M114 -11.5882H75M114 22.5882V56.7647M114 22.5882H75M114 56.7647V90.9412M114 56.7647H75M114 90.9412V125.118M114 90.9412H75M114 125.118V159.294M114 125.118H75M114 159.294V193.471M114 159.294H75M114 193.471V227.647M114 193.471H75M114 227.647V261.824M114 227.647H75M114 261.824V296M114 261.824H75M114 296H75M75 -250.824V-285M75 -250.824V-216.647M75 -250.824H36M75 -285H36M75 -216.647V-182.471M75 -216.647H36M75 -182.471V-148.294M75 -182.471H36M75 -148.294V-114.118M75 -148.294H36M75 -114.118V-79.9412M75 -114.118H36M75 -79.9412V-45.7647M75 -79.9412H36M75 -45.7647V-11.5882M75 -45.7647H36M75 -11.5882V22.5882M75 -11.5882H36M75 22.5882V56.7647M75 22.5882H36M75 56.7647V90.9412M75 56.7647H36M75 90.9412V125.118M75 90.9412H36M75 125.118V159.294M75 125.118H36M75 159.294V193.471M75 159.294H36M75 193.471V227.647M75 193.471H36M75 227.647V261.824M75 227.647H36M75 261.824V296M75 261.824H36M75 296H36M36 -250.824V-285M36 -250.824V-216.647M36 -250.824H-2.99998M36 -285H-2.99998M36 -216.647V-182.471M36 -216.647H-2.99998M36 -182.471V-148.294M36 -182.471H-2.99998M36 -148.294V-114.118M36 -148.294H-2.99998M36 -114.118V-79.9412M36 -114.118H-2.99998M36 -79.9412V-45.7647M36 -79.9412H-2.99998M36 -45.7647V-11.5882M36 -45.7647H-2.99998M36 -11.5882V22.5882M36 -11.5882H-2.99998M36 22.5882V56.7647M36 22.5882H-2.99998M36 56.7647V90.9412M36 56.7647H-3M36 90.9412V125.118M36 90.9412H-3M36 125.118V159.294M36 125.118H-3M36 159.294V193.471M36 159.294H-3M36 193.471V227.647M36 193.471H-3M36 227.647V261.824M36 227.647H-3M36 261.824V296M36 261.824H-3.00002M36 296H-3.00002M-2.99998 -250.824V-285M-2.99998 -250.824V-216.647M-2.99998 -250.824H-42M-2.99998 -285H-42M-2.99998 -216.647V-182.471M-2.99998 -216.647H-42M-2.99998 -182.471V-148.294M-2.99998 -182.471H-42M-2.99998 -148.294V-114.118M-2.99998 -148.294H-42M-2.99998 -114.118V-79.9412M-2.99998 -114.118H-42M-2.99998 -79.9412V-45.7647M-2.99998 -79.9412H-42M-2.99998 -45.7647V-11.5882M-2.99998 -45.7647H-42M-2.99998 -11.5882V22.5882M-2.99998 -11.5882H-42M-2.99998 22.5882L-3 56.7647M-2.99998 22.5882H-42M-3 56.7647V90.9412M-3 56.7647H-42M-3 90.9412V125.118M-3 90.9412H-42M-3 125.118V159.294M-3 125.118H-42M-3 159.294V193.471M-3 159.294H-42M-3 193.471V227.647M-3 193.471H-42M-3 227.647L-3.00002 261.824M-3 227.647H-42M-3.00002 261.824V296M-3.00002 261.824H-42M-3.00002 296H-42M-42 -250.824V-285M-42 -250.824V-216.647M-42 -250.824H-81M-42 -285H-81M-42 -216.647V-182.471M-42 -216.647H-81M-42 -182.471V-148.294M-42 -182.471H-81M-42 -148.294V-114.118M-42 -148.294H-81M-42 -114.118V-79.9412M-42 -114.118H-81M-42 -79.9412V-45.7647M-42 -79.9412H-81M-42 -45.7647V-11.5882M-42 -45.7647H-81M-42 -11.5882V22.5882M-42 -11.5882L-81 -11.5883M-42 22.5882V56.7647M-42 22.5882H-81M-42 56.7647V90.9412M-42 56.7647H-81M-42 90.9412V125.118M-42 90.9412H-81M-42 125.118V159.294M-42 125.118H-81M-42 159.294V193.471M-42 159.294H-81M-42 193.471V227.647M-42 193.471H-81M-42 227.647V261.824M-42 227.647H-81M-42 261.824V296M-42 261.824H-81M-42 296H-81M-81 -250.824V-285M-81 -250.824V-216.647M-81 -250.824H-120M-81 -285H-120M-81 -216.647V-182.471M-81 -216.647H-120M-81 -182.471V-148.294M-81 -182.471H-120M-81 -148.294V-114.118M-81 -148.294H-120M-81 -114.118V-79.9412M-81 -114.118H-120M-81 -79.9412V-45.7647M-81 -79.9412H-120M-81 -45.7647V-11.5883M-81 -45.7647H-120M-81 -11.5883V22.5882M-81 -11.5883H-120M-81 22.5882V56.7647M-81 22.5882H-120M-81 56.7647V90.9412M-81 56.7647H-120M-81 90.9412V125.118M-81 90.9412H-120M-81 125.118V159.294M-81 125.118H-120M-81 159.294V193.471M-81 159.294H-120M-81 193.471V227.647M-81 193.471H-120M-81 227.647V261.824M-81 227.647H-120M-81 261.824V296M-81 261.824H-120M-81 296H-120M-120 -250.824V-285M-120 -250.824V-216.647M-120 -250.824H-159M-120 -285H-159V-250.824M-120 -216.647V-182.471M-120 -216.647H-159M-120 -182.471V-148.294M-120 -182.471H-159M-120 -148.294V-114.118M-120 -148.294H-159M-120 -114.118V-79.9412M-120 -114.118H-159M-120 -79.9412V-45.7647M-120 -79.9412H-159M-120 -45.7647V-11.5883M-120 -45.7647H-159M-120 -11.5883V22.5882M-120 -11.5883H-159M-120 22.5882V56.7647M-120 22.5882H-159M-120 56.7647V90.9412M-120 56.7647H-159M-120 90.9412V125.118M-120 90.9412H-159M-120 125.118V159.294M-120 125.118H-159M-120 159.294V193.471M-120 159.294H-159M-120 193.471V227.647M-120 193.471H-159M-120 227.647V261.824M-120 227.647H-159M-120 261.824V296M-120 261.824H-159M-120 296H-159V261.824M-159 -250.824V-216.647M-159 -216.647V-182.471M-159 -182.471V-148.294M-159 -148.294V-114.118M-159 -114.118V-79.9412M-159 -79.9412V-45.7647M-159 -45.7647V-11.5883M-159 -11.5883V22.5882M-159 22.5882V56.7647M-159 56.7647V90.9412M-159 90.9412V125.118M-159 125.118V159.294M-159 159.294V193.471M-159 193.471V227.647M-159 227.647V261.824" stroke="url(#paint1_linear_20_2092)"/>
</g>
</g>
<defs>
<linearGradient id="paint0_linear_20_2092" x1="119" y1="0" x2="119" y2="177" gradientUnits="userSpaceOnUse">
<stop stop-color="white" stop-opacity="0"/>
<stop offset="1" stop-color="#01D3DA" stop-opacity="0.3"/>
</linearGradient>
<linearGradient id="paint1_linear_20_2092" x1="113.5" y1="17" x2="113.5" y2="176.5" gradientUnits="userSpaceOnUse">
<stop stop-color="white" stop-opacity="0"/>
<stop offset="1" stop-color="white" stop-opacity="0.9"/>
</linearGradient>
<clipPath id="clip0_20_2092">
<rect width="238" height="177" fill="white"/>
</clipPath>
</defs>
</svg>
