<svg width="36" height="36" viewBox="0 0 36 36" fill="none" xmlns="http://www.w3.org/2000/svg">
<circle cx="18" cy="18" r="18" fill="#FFD87C"/>
<path d="M18.2736 9C17.4267 9 16.5794 9.40766 16.1069 10.2271L9.75184 21.2508C8.80539 22.892 10.0299 25 11.928 25H24.6192C26.5173 25 27.7419 22.892 26.7954 21.2508L20.4395 10.2271C19.9669 9.40766 19.1205 9.00002 18.2736 9ZM18.2727 14.0581C18.5521 14.0581 18.8199 14.1695 19.0174 14.3662C19.2149 14.5629 19.3259 14.8296 19.3259 15.1077C19.3261 15.1863 19.3174 15.2645 19.3 15.3411L18.8416 19.4347C18.8416 19.5091 18.8268 19.5827 18.7982 19.6514C18.7696 19.72 18.7277 19.7824 18.6749 19.835C18.6221 19.8875 18.5594 19.9292 18.4904 19.9576C18.4214 19.986 18.3474 20.0006 18.2727 20.0005C18.1221 20.0004 17.9777 19.9408 17.8712 19.8347C17.7647 19.7286 17.7048 19.5847 17.7048 19.4347L17.2447 15.3325C17.2281 15.2584 17.2197 15.1828 17.2196 15.1069C17.2196 14.8288 17.3306 14.562 17.5281 14.3653C17.7256 14.1686 17.9934 14.0581 18.2727 14.0581ZM18.2727 20.5473C18.3705 20.5473 18.4673 20.5664 18.5576 20.6037C18.648 20.6409 18.73 20.6956 18.7991 20.7644C18.8682 20.8333 18.923 20.915 18.9604 21.005C18.9977 21.0949 19.0169 21.1913 19.0168 21.2887C19.0168 21.4851 18.9384 21.6735 18.7988 21.8124C18.6593 21.9513 18.47 22.0293 18.2727 22.0292C18.0755 22.0293 17.8862 21.9513 17.7467 21.8124C17.6071 21.6735 17.5287 21.4851 17.5286 21.2887C17.5286 21.1913 17.5477 21.0949 17.5851 21.005C17.6225 20.915 17.6773 20.8333 17.7464 20.7644C17.8155 20.6956 17.8975 20.6409 17.9879 20.6037C18.0782 20.5664 18.175 20.5473 18.2727 20.5473Z" fill="#845D00"/>
</svg>
